<svg width="72" height="72" viewBox="0 0 72 72" fill="none" xmlns="http://www.w3.org/2000/svg">
<rect width="72" height="72" rx="36" fill="#00AB38"/>
<rect width="72" height="72" rx="36" fill="url(#paint0_linear_6_717)"/>
<path d="M24.9318 51V45.3182L35.7841 36.3409C36.5038 35.7443 37.1193 35.1856 37.6307 34.6648C38.1515 34.1345 38.5492 33.59 38.8239 33.0312C39.108 32.4725 39.25 31.8523 39.25 31.1705C39.25 30.4223 39.089 29.7831 38.767 29.2528C38.4545 28.7225 38.0189 28.3153 37.4602 28.0312C36.9015 27.7377 36.2576 27.5909 35.5284 27.5909C34.7992 27.5909 34.1553 27.7377 33.5966 28.0312C33.0473 28.3248 32.6212 28.7557 32.3182 29.3239C32.0152 29.892 31.8636 30.5833 31.8636 31.3977H24.3636C24.3636 29.3523 24.8229 27.5909 25.7415 26.1136C26.66 24.6364 27.9574 23.5 29.6335 22.7045C31.3097 21.9091 33.2746 21.5114 35.5284 21.5114C37.858 21.5114 39.875 21.8854 41.5795 22.6335C43.2936 23.3722 44.6146 24.4138 45.5426 25.7585C46.4801 27.1032 46.9489 28.6799 46.9489 30.4886C46.9489 31.6061 46.7169 32.7187 46.2528 33.8267C45.7888 34.9252 44.9555 36.142 43.7528 37.4773C42.5502 38.8125 40.8409 40.4034 38.625 42.25L35.8977 44.5227V44.6932H47.2614V51H24.9318Z" fill="white"/>
<defs>
<linearGradient id="paint0_linear_6_717" x1="36" y1="72" x2="36" y2="0" gradientUnits="userSpaceOnUse">
<stop stop-color="#8EFFB3"/>
<stop offset="1" stop-color="#00AB38"/>
</linearGradient>
</defs>
</svg>
