<svg width="72" height="72" viewBox="0 0 72 72" fill="none" xmlns="http://www.w3.org/2000/svg">
<rect width="72" height="72" rx="36" fill="#00AB38"/>
<rect width="72" height="72" rx="36" fill="url(#paint0_linear_6_719)"/>
<path d="M36.2955 51.3977C34.0038 51.3977 31.9678 51.0047 30.1875 50.2188C28.4167 49.4233 27.0246 48.3295 26.0114 46.9375C24.9981 45.5455 24.4867 43.9451 24.4773 42.1364H32.4318C32.4413 42.6951 32.6117 43.197 32.9432 43.642C33.2841 44.0777 33.7481 44.4186 34.3352 44.6648C34.9223 44.911 35.5947 45.0341 36.3523 45.0341C37.0814 45.0341 37.7254 44.9062 38.2841 44.6506C38.8428 44.3854 39.2784 44.0208 39.5909 43.5568C39.9034 43.0928 40.0549 42.5625 40.0455 41.9659C40.0549 41.3788 39.875 40.858 39.5057 40.4034C39.1458 39.9489 38.6392 39.5937 37.9858 39.3381C37.3324 39.0824 36.5795 38.9545 35.7273 38.9545H32.7727V33.5H35.7273C36.5133 33.5 37.2045 33.3722 37.8011 33.1165C38.4072 32.8608 38.8759 32.5057 39.2074 32.0511C39.5483 31.5966 39.714 31.0758 39.7045 30.4886C39.714 29.9205 39.5767 29.4186 39.2926 28.983C39.0085 28.5473 38.6108 28.2064 38.0994 27.9602C37.5975 27.714 37.0152 27.5909 36.3523 27.5909C35.6326 27.5909 34.9886 27.7187 34.4205 27.9744C33.8617 28.2301 33.4214 28.5852 33.0994 29.0398C32.7775 29.4943 32.6117 30.0152 32.6023 30.6023H25.0455C25.0549 28.822 25.5426 27.25 26.5085 25.8864C27.4839 24.5227 28.8191 23.4527 30.5142 22.6761C32.2093 21.8996 34.1553 21.5114 36.3523 21.5114C38.5019 21.5114 40.4006 21.8759 42.0483 22.6051C43.7055 23.3343 44.9981 24.3381 45.9261 25.6165C46.8636 26.8854 47.3277 28.339 47.3182 29.9773C47.3371 31.6061 46.7784 32.9413 45.642 33.983C44.5152 35.0246 43.0852 35.6402 41.3523 35.8295V36.0568C43.7008 36.3125 45.4669 37.0322 46.6506 38.2159C47.8343 39.3902 48.4167 40.8674 48.3977 42.6477C48.4072 44.3523 47.8958 45.8627 46.8636 47.179C45.8409 48.4953 44.4157 49.5275 42.5881 50.2756C40.7699 51.0237 38.6723 51.3977 36.2955 51.3977Z" fill="white"/>
<defs>
<linearGradient id="paint0_linear_6_719" x1="36" y1="72" x2="36" y2="0" gradientUnits="userSpaceOnUse">
<stop stop-color="#8EFFB3"/>
<stop offset="1" stop-color="#00AB38"/>
</linearGradient>
</defs>
</svg>
