<svg width="453" height="453" viewBox="0 0 453 453" fill="none" xmlns="http://www.w3.org/2000/svg">
<path d="M333.779 45.8144L365.758 20.7752C367.811 19.1681 370.778 19.5292 372.385 21.5818L425.457 89.3646C427.064 91.4172 426.703 94.384 424.651 95.9912L392.671 121.03C390.618 122.638 387.652 122.276 386.044 120.224L332.972 52.441C331.365 50.3883 331.726 47.4215 333.779 45.8144Z" fill="#F5F5F5"/>
<path d="M391.582 111.945C391.637 112 396.828 108.022 403.179 103.048C409.53 98.0745 414.64 93.9885 414.595 93.9251C414.549 93.8616 409.358 97.848 402.998 102.822C396.638 107.796 391.537 111.882 391.582 111.945Z" fill="#E0E0E0"/>
<path d="M343.483 47.8551C343.537 47.9185 348.728 43.9321 355.08 38.9581C361.431 33.9842 366.549 29.8982 366.495 29.8347C366.441 29.7713 361.258 33.7577 354.898 38.7317C348.538 43.7056 343.437 47.7916 343.483 47.8551Z" fill="#E0E0E0"/>
<path d="M403.741 102.233C403.804 102.179 392.814 88.0455 379.206 70.6684C365.598 53.2913 354.509 39.2302 354.445 39.2755C354.382 39.3208 365.363 53.4544 378.98 70.8405C392.597 88.2267 403.677 102.279 403.741 102.233Z" fill="#E0E0E0"/>
<path d="M373.381 43.6062L370.491 39.7285L366.867 42.4465C366.612 42.6359 366.397 42.8737 366.235 43.1462C366.073 43.4187 365.966 43.7206 365.92 44.0346C365.875 44.3486 365.892 44.6684 365.97 44.9758C366.049 45.2832 366.187 45.5721 366.377 45.8259C366.76 46.3393 367.331 46.6801 367.964 46.7735C368.598 46.8669 369.242 46.7053 369.757 46.3242L373.381 43.6062Z" fill="#EBEBEB"/>
<path d="M369.838 40.2174L372.728 44.086L376.352 41.368C376.874 40.9905 377.223 40.4216 377.325 39.7862C377.427 39.1509 377.273 38.5011 376.896 37.9795C376.707 37.725 376.469 37.5104 376.196 37.348C375.924 37.1856 375.622 37.0786 375.308 37.0332C374.994 36.9877 374.674 37.0047 374.367 37.0831C374.059 37.1616 373.77 37.3 373.517 37.4903L369.838 40.2174Z" fill="#E0E0E0"/>
<path d="M354.663 57.9026L351.773 54.0249L348.149 56.7429C347.635 57.1272 347.294 57.6994 347.2 58.3343C347.107 58.9693 347.269 59.6153 347.65 60.1313C348.036 60.6439 348.609 60.9831 349.244 61.0748C349.879 61.1664 350.524 61.0032 351.039 60.6206L354.663 57.9026Z" fill="#EBEBEB"/>
<path d="M351.12 54.5049L354.01 58.3826L357.634 55.6646C357.889 55.4752 358.104 55.2374 358.266 54.9649C358.428 54.6924 358.535 54.3905 358.581 54.0765C358.626 53.7625 358.609 53.4427 358.531 53.1353C358.452 52.8279 358.314 52.539 358.124 52.2852C357.934 52.0307 357.697 51.8161 357.424 51.6537C357.151 51.4913 356.85 51.3843 356.536 51.3388C356.222 51.2934 355.902 51.3104 355.594 51.3888C355.287 51.4673 354.998 51.6056 354.744 51.796L351.12 54.5049Z" fill="#E0E0E0"/>
<path d="M381.489 54.2966L378.599 50.4189L374.975 53.1369C374.461 53.5212 374.12 54.0934 374.027 54.7283C373.934 55.3633 374.095 56.0094 374.477 56.5254C374.863 57.038 375.435 57.3772 376.07 57.4688C376.705 57.5605 377.351 57.3972 377.865 57.0146L381.489 54.2966Z" fill="#EBEBEB"/>
<path d="M377.956 50.8994L380.837 54.7771L384.461 52.0591C384.716 51.8697 384.93 51.632 385.093 51.3594C385.255 51.0869 385.362 50.785 385.408 50.471C385.453 50.1571 385.436 49.8372 385.358 49.5298C385.279 49.2224 385.141 48.9335 384.95 48.6797C384.761 48.4252 384.523 48.2106 384.251 48.0482C383.978 47.8858 383.676 47.7788 383.362 47.7334C383.048 47.6879 382.728 47.7049 382.421 47.7833C382.114 47.8618 381.825 48.0001 381.571 48.1905L377.956 50.8994Z" fill="#E0E0E0"/>
<path d="M362.346 68.9013L359.456 65.0327L355.832 67.7507C355.318 68.1334 354.977 68.704 354.884 69.3374C354.791 69.9709 354.952 70.6156 355.333 71.1301C355.523 71.3856 355.761 71.6012 356.034 71.7646C356.307 71.9279 356.609 72.0359 356.924 72.0821C357.239 72.1284 357.56 72.1122 357.868 72.0343C358.177 71.9565 358.467 71.8185 358.722 71.6284L362.346 68.9013Z" fill="#EBEBEB"/>
<path d="M358.776 65.513L361.657 69.3907L365.281 66.6727C365.536 66.4833 365.75 66.2455 365.913 65.973C366.075 65.7004 366.182 65.3985 366.227 65.0846C366.273 64.7706 366.256 64.4507 366.177 64.1433C366.099 63.836 365.961 63.5471 365.77 63.2933C365.388 62.7799 364.817 62.4391 364.184 62.3457C363.55 62.2523 362.905 62.4139 362.391 62.795L358.776 65.513Z" fill="#E0E0E0"/>
<path d="M389.58 64.9783L386.69 61.1006L383.066 63.8186C382.811 64.008 382.597 64.2458 382.434 64.5183C382.272 64.7908 382.165 65.0927 382.12 65.4067C382.074 65.7206 382.091 66.0405 382.169 66.3479C382.248 66.6553 382.386 66.9442 382.577 67.198C382.959 67.7114 383.53 68.0521 384.163 68.1455C384.797 68.2389 385.441 68.0774 385.956 67.6963L389.58 64.9783Z" fill="#EBEBEB"/>
<path d="M386.065 61.608L388.955 65.4857L392.579 62.7677C392.834 62.579 393.05 62.3417 393.213 62.0695C393.376 61.7973 393.484 61.4956 393.53 61.1816C393.576 60.8675 393.56 60.5475 393.483 60.2398C393.405 59.932 393.267 59.6427 393.077 59.3883C392.695 58.8827 392.13 58.5472 391.503 58.454C390.876 58.3608 390.238 58.5174 389.725 58.89L386.065 61.608Z" fill="#E0E0E0"/>
<path d="M370.029 79.9094L367.147 76.0317L363.523 78.7497C363.269 78.9391 363.054 79.1769 362.892 79.4494C362.73 79.722 362.623 80.0239 362.577 80.3378C362.532 80.6518 362.549 80.9717 362.627 81.2791C362.706 81.5864 362.844 81.8753 363.034 82.1291C363.417 82.6425 363.987 82.9833 364.621 83.0767C365.254 83.1701 365.899 83.0085 366.414 82.6274L370.029 79.9094Z" fill="#EBEBEB"/>
<path d="M366.495 76.5208L369.385 80.3985L373.009 77.6805C373.267 77.493 373.485 77.2564 373.651 76.9844C373.817 76.7124 373.927 76.4103 373.976 76.0955C374.025 75.7806 374.011 75.4592 373.935 75.1497C373.86 74.8402 373.723 74.5488 373.535 74.2921C373.15 73.778 372.578 73.4371 371.943 73.3437C371.308 73.2503 370.662 73.4121 370.146 73.7938L366.495 76.5208Z" fill="#E0E0E0"/>
<path d="M398.803 75.9592L395.922 72.0815L392.298 74.7995C392.044 74.9889 391.829 75.2267 391.666 75.4992C391.504 75.7718 391.397 76.0737 391.352 76.3876C391.306 76.7016 391.323 77.0215 391.402 77.3289C391.48 77.6363 391.618 77.9251 391.809 78.1789C391.998 78.4334 392.236 78.648 392.508 78.8104C392.781 78.9729 393.083 79.0798 393.397 79.1253C393.711 79.1708 394.031 79.1538 394.338 79.0753C394.645 78.9969 394.934 78.8585 395.188 78.6682L398.803 75.9592Z" fill="#EBEBEB"/>
<path d="M395.27 72.5619L398.16 76.4396L401.784 73.7216C402.295 73.3346 402.632 72.7611 402.722 72.1263C402.812 71.4915 402.648 70.8469 402.264 70.3331C401.878 69.8205 401.306 69.4813 400.671 69.3897C400.036 69.298 399.39 69.4613 398.876 69.8439L395.27 72.5619Z" fill="#E0E0E0"/>
<path d="M379.07 90.6638L376.18 86.7861L372.556 89.5041C372.301 89.6928 372.086 89.9301 371.922 90.2023C371.759 90.4745 371.651 90.7763 371.605 91.0903C371.559 91.4043 371.575 91.7244 371.653 92.0321C371.73 92.3398 371.868 92.6292 372.058 92.8835C372.247 93.138 372.485 93.3526 372.758 93.515C373.03 93.6774 373.332 93.7844 373.646 93.8299C373.96 93.8753 374.28 93.8584 374.587 93.7799C374.895 93.7015 375.184 93.5631 375.437 93.3727L379.07 90.6638Z" fill="#EBEBEB"/>
<path d="M375.528 87.275L378.418 91.1436L382.042 88.4256C382.555 88.04 382.894 87.4672 382.986 86.8323C383.077 86.1974 382.914 85.552 382.531 85.0372C382.342 84.7827 382.104 84.568 381.832 84.4056C381.559 84.2432 381.257 84.1362 380.943 84.0908C380.629 84.0453 380.309 84.0623 380.002 84.1408C379.695 84.2192 379.406 84.3576 379.152 84.5479L375.528 87.275Z" fill="#E0E0E0"/>
<path d="M406.939 88.3259L404.076 84.4482L400.452 87.1662C399.939 87.5519 399.6 88.1247 399.509 88.7596C399.417 89.3944 399.58 90.0398 399.963 90.5547C400.152 90.8092 400.39 91.0238 400.662 91.1862C400.935 91.3486 401.237 91.4556 401.551 91.5011C401.865 91.5465 402.185 91.5295 402.492 91.4511C402.799 91.3726 403.088 91.2343 403.342 91.0439L406.939 88.3259Z" fill="#EBEBEB"/>
<path d="M403.397 84.9285L406.287 88.7881L409.911 86.0701C410.423 85.689 410.764 85.1208 410.859 84.4894C410.954 83.8581 410.795 83.2148 410.418 82.6998C410.229 82.4452 409.991 82.2306 409.718 82.0682C409.446 81.9058 409.144 81.7988 408.83 81.7534C408.516 81.7079 408.196 81.7249 407.889 81.8034C407.581 81.8818 407.292 82.0202 407.039 82.2105L403.397 84.9285Z" fill="#E0E0E0"/>
<path d="M388.158 102.315L385.267 98.437L381.643 101.155C381.388 101.344 381.173 101.581 381.01 101.853C380.846 102.125 380.738 102.427 380.692 102.741C380.646 103.055 380.662 103.375 380.74 103.683C380.818 103.991 380.955 104.28 381.145 104.534C381.335 104.789 381.572 105.004 381.845 105.166C382.117 105.328 382.419 105.435 382.733 105.481C383.047 105.526 383.367 105.509 383.674 105.431C383.982 105.352 384.271 105.214 384.525 105.024L388.158 102.315Z" fill="#EBEBEB"/>
<path d="M384.615 98.9173L387.505 102.795L391.129 100.077C391.642 99.6913 391.981 99.1185 392.073 98.4837C392.164 97.8488 392.001 97.2034 391.619 96.6885C391.429 96.434 391.191 96.2194 390.919 96.057C390.646 95.8946 390.344 95.7876 390.03 95.7422C389.716 95.6967 389.397 95.7137 389.089 95.7921C388.782 95.8706 388.493 96.0089 388.239 96.1993L384.615 98.9173Z" fill="#E0E0E0"/>
<path d="M27.6693 273.123L85.8707 292.955C86.4579 293.155 87.0786 293.236 87.6974 293.196C88.3161 293.155 88.9209 292.993 89.477 292.719C90.0332 292.445 90.5298 292.064 90.9386 291.597C91.3474 291.131 91.6603 290.589 91.8594 290.001L132.457 170.826C132.658 170.239 132.742 169.618 132.702 168.999C132.663 168.379 132.502 167.774 132.229 167.217C131.955 166.66 131.575 166.162 131.109 165.752C130.643 165.342 130.1 165.029 129.513 164.829L71.3113 145.005C70.1267 144.602 68.8304 144.686 67.7074 145.238C66.5845 145.79 65.7267 146.765 65.3227 147.95L24.7248 267.134C24.5239 267.721 24.4407 268.341 24.48 268.96C24.5193 269.578 24.6804 270.183 24.9539 270.74C25.2275 271.296 25.6081 271.793 26.0741 272.202C26.5401 272.611 27.0822 272.924 27.6693 273.123Z" fill="#EBEBEB"/>
<path d="M102.904 181.327C102.571 182.299 102.535 183.347 102.798 184.34C103.062 185.332 103.614 186.224 104.385 186.903C105.156 187.581 106.111 188.016 107.129 188.152C108.147 188.288 109.182 188.119 110.104 187.666C111.026 187.214 111.793 186.498 112.308 185.609C112.822 184.72 113.062 183.699 112.996 182.674C112.931 181.649 112.563 180.667 111.938 179.851C111.314 179.036 110.462 178.424 109.49 178.092C108.188 177.649 106.762 177.74 105.527 178.346C104.292 178.953 103.349 180.025 102.904 181.327Z" fill="#FAFAFA"/>
<path d="M74.3645 171.606C74.0341 172.576 73.9988 173.622 74.263 174.613C74.5272 175.603 75.0792 176.493 75.849 177.169C76.6189 177.846 77.572 178.279 78.588 178.414C79.604 178.549 80.6372 178.379 81.557 177.927C82.4767 177.475 83.2417 176.76 83.7552 175.873C84.2686 174.986 84.5076 173.967 84.4418 172.944C84.3759 171.921 84.0083 170.941 83.3854 170.127C82.7625 169.313 81.9122 168.702 80.9421 168.371C80.2978 168.152 79.6166 168.061 78.9374 168.105C78.2581 168.149 77.5941 168.326 76.9833 168.626C76.3725 168.926 75.8269 169.344 75.3775 169.855C74.9282 170.367 74.584 170.961 74.3645 171.606Z" fill="#FAFAFA"/>
<path d="M93.8707 207.864C93.5403 208.834 93.5049 209.88 93.7692 210.87C94.0334 211.861 94.5853 212.75 95.3552 213.427C96.125 214.104 97.0782 214.537 98.0942 214.672C99.1102 214.807 100.143 214.637 101.063 214.185C101.983 213.733 102.748 213.018 103.261 212.131C103.775 211.244 104.014 210.224 103.948 209.202C103.882 208.179 103.514 207.198 102.892 206.385C102.269 205.571 101.418 204.96 100.448 204.629C99.8041 204.408 99.1226 204.317 98.443 204.36C97.7634 204.403 97.0989 204.58 96.4878 204.881C95.8767 205.181 95.331 205.599 94.8819 206.111C94.4328 206.623 94.0891 207.219 93.8707 207.864Z" fill="#FAFAFA"/>
<path d="M65.3226 198.142C64.9922 199.113 64.9569 200.159 65.2211 201.149C65.4853 202.139 66.0373 203.029 66.8071 203.706C67.5769 204.382 68.5301 204.816 69.5461 204.95C70.5621 205.085 71.5953 204.916 72.515 204.464C73.4348 204.011 74.1997 203.297 74.7132 202.41C75.2267 201.523 75.4657 200.503 75.3999 199.48C75.334 198.458 74.9664 197.477 74.3435 196.663C73.7206 195.85 72.8703 195.239 71.9002 194.908C71.2559 194.688 70.5747 194.598 69.8955 194.642C69.2162 194.685 68.5522 194.862 67.9414 195.163C67.3306 195.463 66.785 195.881 66.3356 196.392C65.8863 196.903 65.5421 197.498 65.3226 198.142Z" fill="#FAFAFA"/>
<path d="M84.8288 234.409C84.4984 235.38 84.4631 236.426 84.7273 237.416C84.9915 238.407 85.5434 239.296 86.3133 239.973C87.0831 240.649 88.0363 241.083 89.0523 241.217C90.0683 241.352 91.1015 241.183 92.0212 240.731C92.9409 240.278 93.7059 239.564 94.2194 238.677C94.7329 237.79 94.9719 236.77 94.9061 235.748C94.8402 234.725 94.4726 233.744 93.8497 232.93C93.2268 232.117 92.3765 231.506 91.4064 231.175C90.7621 230.955 90.0809 230.865 89.4016 230.909C88.7224 230.952 88.0584 231.129 87.4476 231.43C86.8368 231.73 86.2912 232.148 85.8418 232.659C85.3925 233.17 85.0483 233.765 84.8288 234.409Z" fill="#FAFAFA"/>
<path d="M56.2808 224.688C55.9503 225.658 55.915 226.705 56.1792 227.695C56.4435 228.685 56.9954 229.575 57.7652 230.252C58.5351 230.928 59.4883 231.361 60.5043 231.496C61.5203 231.631 62.5534 231.462 63.4732 231.01C64.3929 230.557 65.1579 229.842 65.6714 228.955C66.1848 228.068 66.4238 227.049 66.358 226.026C66.2922 225.004 65.9246 224.023 65.3016 223.209C64.6787 222.395 63.8284 221.785 62.8583 221.454C62.2141 221.234 61.5329 221.144 60.8536 221.187C60.1744 221.231 59.5104 221.408 58.8995 221.709C58.2887 222.009 57.7431 222.427 57.2938 222.938C56.8444 223.449 56.5002 224.044 56.2808 224.688Z" fill="#FAFAFA"/>
<path d="M75.7869 260.928C75.4565 261.898 75.4212 262.945 75.6854 263.935C75.9496 264.925 76.5015 265.815 77.2714 266.491C78.0412 267.168 78.9944 267.601 80.0104 267.736C81.0264 267.871 82.0596 267.702 82.9793 267.249C83.8991 266.797 84.664 266.082 85.1775 265.195C85.691 264.308 85.93 263.289 85.8642 262.266C85.7983 261.243 85.4307 260.263 84.8078 259.449C84.1849 258.635 83.3346 258.024 82.3645 257.694C81.7202 257.474 81.039 257.383 80.3598 257.427C79.6805 257.471 79.0165 257.648 78.4057 257.948C77.7949 258.249 77.2493 258.666 76.7999 259.178C76.3506 259.689 76.0064 260.284 75.7869 260.928Z" fill="#FAFAFA"/>
<path d="M47.2389 251.225C46.9084 252.195 46.8731 253.241 47.1373 254.232C47.4016 255.222 47.9535 256.112 48.7234 256.788C49.4932 257.465 50.4464 257.898 51.4624 258.033C52.4784 258.168 53.5115 257.998 54.4313 257.546C55.351 257.094 56.116 256.379 56.6295 255.492C57.143 254.605 57.3819 253.586 57.3161 252.563C57.2503 251.54 56.8827 250.56 56.2597 249.746C55.6368 248.932 54.7865 248.321 53.8164 247.99C53.1722 247.771 52.491 247.68 51.8117 247.724C51.1325 247.768 50.4685 247.945 49.8577 248.245C49.2469 248.546 48.7012 248.963 48.2519 249.475C47.8025 249.986 47.4583 250.581 47.2389 251.225Z" fill="#FAFAFA"/>
<path d="M105.685 178.545C106.238 180.079 106.916 181.564 107.714 182.985C108.386 184.471 109.187 185.896 110.106 187.243C109.554 185.71 108.875 184.225 108.077 182.804C107.406 181.317 106.606 179.892 105.685 178.545Z" fill="#E0E0E0"/>
<path d="M77.7348 168.788C78.2834 170.325 78.9592 171.812 79.7552 173.237C80.434 174.719 81.234 176.144 82.1471 177.495C81.5965 175.959 80.9208 174.471 80.1267 173.046C79.4454 171.565 78.6455 170.141 77.7348 168.788Z" fill="#E0E0E0"/>
<path d="M96.3803 205.083C96.8565 206.684 97.4625 208.245 98.1923 209.748C98.7876 211.317 99.515 212.833 100.367 214.278C99.8872 212.678 99.2813 211.117 98.5547 209.613C97.957 208.045 97.2297 206.529 96.3803 205.083Z" fill="#E0E0E0"/>
<path d="M68.1856 195.297C68.5656 196.849 69.0809 198.365 69.7258 199.827C70.2437 201.344 70.8893 202.814 71.6555 204.221C71.274 202.67 70.7587 201.154 70.1154 199.691C69.593 198.177 68.9476 196.707 68.1856 195.297Z" fill="#E0E0E0"/>
<path d="M88.1901 231.51C89.1432 234.41 90.3561 237.218 91.8141 239.9C90.8609 237 89.648 234.192 88.1901 231.51Z" fill="#E0E0E0"/>
<path d="M58.9535 222.233C60.1503 225.092 61.5996 227.839 63.2841 230.441C62.7517 228.986 62.0876 227.582 61.3 226.246C60.6333 224.844 59.8483 223.502 58.9535 222.233Z" fill="#E0E0E0"/>
<path d="M78.3781 258.428C78.9702 259.938 79.6885 261.396 80.5253 262.786C81.2421 264.241 82.0817 265.632 83.0349 266.944C81.7273 263.978 80.1694 261.129 78.3781 258.428Z" fill="#E0E0E0"/>
<path d="M49.8934 247.846C50.3673 249.548 50.9731 251.211 51.7054 252.82C52.3081 254.479 53.0413 256.087 53.8979 257.63C53.4246 255.928 52.8187 254.265 52.0859 252.657C51.4855 250.997 50.7523 249.388 49.8934 247.846Z" fill="#E0E0E0"/>
<path d="M39.4835 265.458C39.4835 265.567 48.1902 268.638 59.0078 272.326C69.8255 276.013 78.6408 278.912 78.6771 278.803C78.7133 278.695 69.9704 275.623 59.1437 271.936C48.317 268.249 39.5197 265.331 39.4835 265.458Z" fill="#E0E0E0"/>
<path d="M78.2784 158.74C78.2784 158.84 86.9851 161.92 97.8118 165.608C108.638 169.295 117.436 172.194 117.472 172.086C117.508 171.977 108.765 168.906 97.9386 165.218C87.1119 161.531 78.3147 158.632 78.2784 158.74Z" fill="#E0E0E0"/>
<path d="M97.3135 170.736C97.364 170.749 97.417 170.749 97.4675 170.736H97.5219L97.1232 170.609C97.1232 170.672 97.1232 170.763 97.2682 170.799C97.4131 170.835 97.4856 170.799 97.5128 170.736L97.1142 170.609C97.1142 170.609 97.1142 170.654 97.1142 170.663C97.1398 170.69 97.1711 170.71 97.2056 170.722C97.2401 170.735 97.277 170.739 97.3135 170.736Z" fill="#E0E0E0"/>
<path d="M60.4121 272.335C60.5208 272.335 68.7836 248.398 78.8764 218.79C88.9692 189.182 97.0508 165.137 96.942 165.101C96.8333 165.064 88.5706 189.037 78.4868 218.654C68.403 248.271 60.3034 272.299 60.4121 272.335Z" fill="#E0E0E0"/>
<path d="M276.086 428.608L272.978 381.944L181.774 388.018C180.268 388.118 178.864 388.812 177.87 389.948C176.877 391.083 176.375 392.567 176.475 394.073L178.826 429.383C178.927 430.889 179.621 432.293 180.757 433.287C181.892 434.28 183.376 434.782 184.882 434.682L276.086 428.608Z" fill="#F5F5F5"/>
<path d="M247.55 401.048L249.503 430.374L207.576 433.166L205.623 403.841L247.55 401.048Z" fill="#E0E0E0"/>
<path d="M281.469 379.238L284.951 431.525C285.02 432.574 284.227 433.48 283.179 433.55L270.776 434.376C269.727 434.446 268.821 433.653 268.751 432.604L265.269 380.317C265.199 379.269 265.992 378.362 267.041 378.292L279.444 377.466C280.492 377.396 281.399 378.19 281.469 379.238Z" fill="#EBEBEB"/>
<path d="M268.575 430.042C271.296 430.113 274.019 430.016 276.729 429.752C279.436 429.653 282.135 429.39 284.81 428.964C282.089 428.893 279.366 428.99 276.656 429.254C273.949 429.352 271.25 429.616 268.575 430.042Z" fill="#E0E0E0"/>
<path d="M268.276 425.512C270.982 425.587 273.69 425.49 276.384 425.222C279.092 425.124 281.791 424.86 284.466 424.434C281.76 424.37 279.052 424.467 276.357 424.724C273.65 424.823 270.951 425.086 268.276 425.512Z" fill="#E0E0E0"/>
<path d="M267.968 420.991C270.689 421.062 273.412 420.965 276.122 420.701C278.829 420.603 281.528 420.339 284.203 419.913C281.482 419.842 278.759 419.939 276.049 420.203C273.342 420.302 270.643 420.565 267.968 420.991Z" fill="#E0E0E0"/>
<path d="M267.669 416.461C270.39 416.532 273.113 416.435 275.823 416.171C278.53 416.073 281.229 415.809 283.904 415.383C281.183 415.318 278.46 415.415 275.75 415.673C273.043 415.771 270.344 416.035 267.669 416.461Z" fill="#E0E0E0"/>
<path d="M267.37 411.94C270.076 412.01 272.784 411.913 275.478 411.65C278.189 411.552 280.891 411.288 283.569 410.862C280.848 410.791 278.124 410.888 275.415 411.152C272.72 411.252 270.033 411.515 267.37 411.94Z" fill="#E0E0E0"/>
<path d="M267.062 407.411C269.783 407.481 272.506 407.385 275.216 407.121C277.923 407.022 280.622 406.759 283.297 406.332C280.576 406.267 277.853 406.364 275.143 406.622C272.436 406.722 269.737 406.985 267.062 407.411Z" fill="#E0E0E0"/>
<path d="M266.763 402.89C269.484 402.96 272.207 402.864 274.917 402.6C277.624 402.501 280.323 402.238 282.998 401.811C280.277 401.741 277.554 401.838 274.844 402.101C272.137 402.201 269.438 402.464 266.763 402.89Z" fill="#E0E0E0"/>
<path d="M266.464 398.36C269.185 398.43 271.908 398.334 274.618 398.07C277.325 397.97 280.024 397.707 282.699 397.281C279.978 397.216 277.255 397.313 274.545 397.571C271.838 397.67 269.139 397.933 266.464 398.36Z" fill="#E0E0E0"/>
<path d="M266.165 393.838C268.871 393.908 271.579 393.811 274.273 393.548C276.981 393.45 279.68 393.186 282.355 392.76C279.634 392.689 276.91 392.786 274.201 393.05C271.509 393.15 268.825 393.414 266.165 393.838Z" fill="#E0E0E0"/>
<path d="M265.857 389.309C268.578 389.38 271.301 389.283 274.011 389.019C276.718 388.92 279.417 388.657 282.092 388.231C279.371 388.165 276.648 388.262 273.938 388.521C271.231 388.62 268.532 388.883 265.857 389.309Z" fill="#E0E0E0"/>
<path d="M265.558 384.787C268.279 384.858 271.002 384.761 273.712 384.497C276.419 384.399 279.118 384.135 281.793 383.709C279.072 383.638 276.349 383.735 273.639 383.999C270.932 384.097 268.233 384.361 265.558 384.787Z" fill="#E0E0E0"/>
<path d="M265.259 380.258C267.965 380.327 270.673 380.23 273.367 379.968C276.078 379.869 278.78 379.606 281.458 379.18C278.737 379.109 276.013 379.206 273.304 379.47C270.609 379.57 267.922 379.833 265.259 380.258Z" fill="#E0E0E0"/>
<path d="M187.773 425.531L190.404 425.355C191.123 425.307 191.794 424.976 192.268 424.433C192.743 423.891 192.983 423.182 192.935 422.463L192.339 413.513L184.203 414.055L184.799 423.005C184.823 423.368 184.92 423.722 185.083 424.047C185.247 424.372 185.474 424.661 185.752 424.897C186.029 425.132 186.351 425.31 186.698 425.419C187.045 425.528 187.411 425.566 187.773 425.531Z" fill="#EBEBEB"/>
<path d="M189.796 405.145L187.078 405.336C186.357 405.386 185.686 405.721 185.212 406.266C184.738 406.812 184.5 407.523 184.551 408.244L185.178 417.213L193.332 416.642L192.705 407.673C192.654 406.952 192.319 406.281 191.774 405.807C191.229 405.333 190.517 405.095 189.796 405.145Z" fill="#E0E0E0"/>
<path d="M206.851 396.832L207.537 399.39C207.724 400.089 208.182 400.685 208.809 401.047C209.436 401.409 210.181 401.507 210.88 401.32L219.58 398.988L217.46 391.078L208.76 393.41C208.407 393.505 208.076 393.669 207.788 393.894C207.5 394.118 207.259 394.398 207.081 394.717C206.903 395.037 206.791 395.388 206.752 395.752C206.712 396.115 206.746 396.482 206.851 396.832Z" fill="#EBEBEB"/>
<path d="M226.923 393.3L226.241 390.753C226.055 390.057 225.599 389.463 224.975 389.103C224.351 388.742 223.609 388.644 222.913 388.831L214.248 391.151L216.357 399.027L225.022 396.707C225.373 396.613 225.702 396.45 225.989 396.226C226.277 396.003 226.516 395.724 226.693 395.406C226.871 395.088 226.982 394.738 227.022 394.376C227.061 394.014 227.028 393.648 226.923 393.3Z" fill="#E0E0E0"/>
<path d="M181.393 392.662L180.681 395.193C180.487 395.886 180.575 396.627 180.927 397.254C181.279 397.88 181.865 398.342 182.557 398.537L191.168 400.958L193.369 393.131L184.758 390.709C184.409 390.61 184.044 390.583 183.684 390.629C183.324 390.674 182.976 390.791 182.663 390.974C182.349 391.156 182.075 391.399 181.857 391.689C181.639 391.979 181.481 392.31 181.393 392.662Z" fill="#EBEBEB"/>
<path d="M206.066 400.952L206.778 398.421C206.973 397.729 206.885 396.988 206.533 396.361C206.181 395.735 205.595 395.273 204.903 395.078L196.257 392.647L194.056 400.475L202.667 402.896C203.017 403 203.386 403.032 203.749 402.99C204.113 402.948 204.464 402.832 204.782 402.651C205.099 402.469 205.377 402.225 205.598 401.933C205.819 401.641 205.978 401.308 206.066 400.952Z" fill="#E0E0E0"/>
<path d="M202.301 425.076L204.742 424.081C205.409 423.808 205.941 423.282 206.221 422.618C206.5 421.953 206.504 421.205 206.232 420.537L202.844 412.232L195.294 415.312L198.682 423.617C198.954 424.285 199.48 424.817 200.145 425.096C200.809 425.375 201.558 425.38 202.225 425.107L202.301 425.076Z" fill="#EBEBEB"/>
<path d="M196.416 403.656L193.974 404.652C193.307 404.924 192.775 405.45 192.496 406.115C192.216 406.779 192.212 407.528 192.484 408.195L195.872 416.5L203.422 413.421L200.034 405.115C199.897 404.778 199.694 404.472 199.436 404.216C199.178 403.959 198.871 403.756 198.534 403.62C198.196 403.484 197.835 403.417 197.471 403.423C197.107 403.429 196.748 403.509 196.416 403.656Z" fill="#E0E0E0"/>
<path d="M75.8866 68.8564L69.762 76.648C69.6504 76.7943 69.6002 76.9784 69.6222 77.1612C69.6442 77.3439 69.7366 77.5108 69.8798 77.6265L77.753 83.742C78.3381 84.1982 79.0074 84.5346 79.7227 84.732C80.438 84.9293 81.1851 84.9836 81.9215 84.8919C82.6578 84.8002 83.3687 84.5642 84.0138 84.1974C84.6588 83.8307 85.2251 83.3403 85.6805 82.7544C86.137 82.1686 86.4736 81.4985 86.671 80.7825C86.8685 80.0665 86.9229 79.3186 86.8312 78.5815C86.7394 77.8445 86.5034 77.1327 86.1365 76.487C85.7696 75.8412 85.2791 75.274 84.6929 74.8179L76.8198 68.7024C76.6727 68.6082 76.4959 68.5718 76.3236 68.6003C76.1513 68.6287 75.9956 68.7199 75.8866 68.8564Z" fill="#EBEBEB"/>
<path d="M71.3022 77.8076L77.3906 69.9889C77.4465 69.9163 77.4875 69.8334 77.5114 69.745C77.5353 69.6565 77.5416 69.5642 77.5298 69.4734C77.518 69.3825 77.4885 69.2948 77.4428 69.2154C77.3972 69.136 77.3363 69.0663 77.2637 69.0104L69.3996 62.8949C68.8145 62.4386 68.1451 62.1022 67.4299 61.9049C66.7146 61.7076 65.9674 61.6532 65.2311 61.745C64.4948 61.8367 63.7838 62.0727 63.1388 62.4394C62.4938 62.8062 61.9274 63.2966 61.4721 63.8824C61.0156 64.4683 60.679 65.1384 60.4816 65.8544C60.2841 66.5704 60.2297 67.3183 60.3214 68.0553C60.4131 68.7924 60.6492 69.5041 61.0161 70.1499C61.383 70.7957 61.8735 71.3629 62.4597 71.819L70.3237 77.9164C70.4681 78.0313 70.6521 78.0844 70.8354 78.0641C71.0188 78.0437 71.1867 77.9515 71.3022 77.8076Z" fill="#E0E0E0"/>
<path d="M424.624 254.369L415.301 257.757C415.126 257.822 414.984 257.954 414.906 258.124C414.828 258.294 414.82 258.488 414.885 258.663L418.291 268.022C418.544 268.721 418.932 269.363 419.434 269.911C419.935 270.46 420.539 270.904 421.213 271.219C421.886 271.534 422.614 271.712 423.357 271.745C424.099 271.778 424.841 271.664 425.539 271.41C426.949 270.898 428.097 269.846 428.733 268.487C429.368 267.128 429.438 265.573 428.928 264.162L425.521 254.803C425.492 254.715 425.445 254.634 425.383 254.564C425.322 254.495 425.248 254.438 425.164 254.398C425.08 254.357 424.99 254.334 424.897 254.329C424.804 254.324 424.711 254.337 424.624 254.369Z" fill="#EBEBEB"/>
<path d="M415.954 259.542L425.267 256.154C425.356 256.124 425.437 256.076 425.506 256.013C425.575 255.951 425.631 255.875 425.67 255.79C425.709 255.705 425.73 255.614 425.733 255.52C425.735 255.427 425.719 255.334 425.684 255.248L422.278 245.88C422.025 245.181 421.636 244.539 421.135 243.991C420.633 243.443 420.029 242.999 419.355 242.685C418.682 242.371 417.953 242.193 417.211 242.161C416.469 242.13 415.727 242.245 415.03 242.5C414.331 242.753 413.689 243.141 413.141 243.643C412.593 244.144 412.149 244.749 411.835 245.423C411.521 246.096 411.343 246.825 411.311 247.567C411.28 248.309 411.395 249.051 411.65 249.748L415.057 259.116C415.12 259.291 415.25 259.434 415.418 259.513C415.586 259.593 415.778 259.603 415.954 259.542Z" fill="#E0E0E0"/>
<path d="M33.522 433.92C33.522 434.056 120.353 434.156 227.406 434.156C334.459 434.156 421.29 434.056 421.29 433.92C421.29 433.784 334.477 433.685 227.361 433.685C120.244 433.685 33.522 433.793 33.522 433.92Z" fill="#263238"/>
<path d="M107.551 33.6758H325.87C330.924 33.6758 335.021 37.7726 335.021 42.8264V337.05C335.021 342.104 330.924 346.2 325.87 346.2H107.551C102.497 346.2 98.4006 342.104 98.4006 337.05V42.8264C98.4006 37.7726 102.497 33.6758 107.551 33.6758Z" fill="#455A64"/>
<path d="M114.256 48.4438H319.184V324.729H114.256V48.4438Z" fill="white"/>
<path d="M114.247 324.728C114.247 322.844 114.337 212.031 114.464 48.3985L114.247 48.6069H319.157L318.921 48.3713C318.921 151.411 318.921 246.885 318.921 324.701L319.12 324.502L114.183 324.701L319.12 324.892H319.311V324.701C319.311 246.93 319.311 151.456 319.356 48.3713V48.1357H319.093H114.183H113.975V48.3532C114.156 212.004 114.247 322.844 114.247 324.728Z" fill="#263238"/>
<path d="M276.04 94.8129L280.815 87.6284H286.097V94.8129H291.832V69.0282H281.105C279.135 68.9814 277.18 69.3712 275.379 70.1697C273.846 70.8529 272.548 71.9713 271.646 73.386C270.74 74.8839 270.285 76.6104 270.332 78.36C270.277 80.1186 270.74 81.8547 271.664 83.352C272.575 84.7591 273.884 85.863 275.424 86.523L269.861 94.8129H276.04ZM277.49 75.0531C278.617 74.2036 280.014 73.7916 281.422 73.8934H286.097V82.8809H281.422C280.01 82.9783 278.612 82.5562 277.49 81.6941C276.624 80.8057 276.139 79.6142 276.139 78.3736C276.139 77.1329 276.624 75.9414 277.49 75.0531Z" fill="#00AB38"/>
<path d="M263.492 112.634L269.164 104.19L274.735 112.67H280.978L272.28 100.249L280.543 88.2442H274.364L268.928 96.1627L263.646 88.208H257.775L265.929 99.986L257.168 112.616L263.492 112.634Z" fill="#00AB38"/>
<path d="M185.413 75.189H220.584V83.8956H185.413V75.189Z" fill="#E0E0E0"/>
<path d="M133.834 80.6882C133.834 80.8241 143.456 80.9238 155.325 80.9238C167.193 80.9238 176.806 80.8241 176.806 80.6882C176.806 80.5523 167.193 80.4526 155.325 80.4526C143.456 80.4526 133.834 80.5614 133.834 80.6882Z" fill="#263238"/>
<path d="M134.641 91.1343C134.641 91.2611 153.884 91.3698 177.612 91.3698C201.34 91.3698 220.584 91.2611 220.584 91.1343C220.584 91.0074 201.349 90.8896 177.612 90.8896C153.875 90.8896 134.641 90.9984 134.641 91.1343Z" fill="#263238"/>
<path d="M134.641 101.363C134.641 101.49 153.884 101.599 177.612 101.599C201.34 101.599 220.584 101.49 220.584 101.363C220.584 101.236 201.349 101.127 177.612 101.127C153.875 101.127 134.641 101.227 134.641 101.363Z" fill="#263238"/>
<path d="M121.232 128.652C121.232 128.779 163.986 128.887 216.706 128.887C269.426 128.887 312.189 128.779 312.189 128.652C312.189 128.525 269.453 128.407 216.706 128.407C163.959 128.407 121.232 128.498 121.232 128.652Z" fill="#263238"/>
<path d="M121.232 283.089C121.232 283.216 163.986 283.325 216.706 283.325C269.426 283.325 312.189 283.216 312.189 283.089C312.189 282.962 269.453 282.854 216.706 282.854C163.959 282.854 121.232 282.953 121.232 283.089Z" fill="#263238"/>
<path d="M237.544 144.262H296.461V155.315H237.544V144.262Z" fill="#E0E0E0"/>
<path d="M270.957 298.853H296.461V309.906H270.957V298.853Z" fill="#E0E0E0"/>
<path d="M185.322 298.853H210.826V309.906H185.322V298.853Z" fill="#E0E0E0"/>
<path d="M228.212 306.509C228.212 306.645 236.176 306.745 245.997 306.745C255.818 306.745 263.791 306.645 263.791 306.509C263.791 306.373 255.827 306.273 245.997 306.273C236.167 306.273 228.212 306.382 228.212 306.509Z" fill="#263238"/>
<path d="M136.634 306.509C136.634 306.645 144.598 306.745 154.419 306.745C164.24 306.745 172.212 306.645 172.212 306.509C172.212 306.373 164.249 306.273 154.419 306.273C144.589 306.273 136.634 306.382 136.634 306.509Z" fill="#263238"/>
<path d="M138.745 171.959C138.745 172.086 173.653 172.194 216.661 172.194C259.669 172.194 294.577 172.086 294.577 171.959C294.577 171.832 259.687 171.723 216.661 171.723C173.635 171.723 138.745 171.823 138.745 171.959Z" fill="#263238"/>
<path d="M135.719 184.57C135.719 184.706 171.297 184.806 215.175 184.806C259.053 184.806 294.64 184.706 294.64 184.57C294.64 184.434 259.071 184.334 215.175 184.334C171.279 184.334 135.719 184.443 135.719 184.57Z" fill="#263238"/>
<path d="M217.603 197.191C217.603 197.317 235.261 197.426 257.032 197.426C278.803 197.426 296.461 197.317 296.461 197.191C296.461 197.064 278.812 196.955 257.032 196.955C235.252 196.955 217.603 197.055 217.603 197.191Z" fill="#263238"/>
<path d="M136.888 242.944C136.888 242.944 137.06 243.016 137.413 243.125L138.953 243.596C140.943 244.188 142.967 244.66 145.014 245.009C146.493 245.269 147.989 245.412 149.49 245.435C151.285 245.47 153.076 245.248 154.808 244.774C156.803 244.203 158.641 243.184 160.181 241.793C161.917 240.207 163.058 238.074 163.415 235.75C163.601 234.494 163.448 233.212 162.971 232.035C162.437 230.812 161.563 229.768 160.453 229.027C159.879 228.63 159.232 228.351 158.549 228.206C157.866 228.061 157.161 228.054 156.475 228.185C155.781 228.356 155.128 228.664 154.555 229.091C153.995 229.559 153.528 230.127 153.177 230.767C152.511 232.092 152.178 233.56 152.208 235.043C152.202 236.561 152.478 238.066 153.023 239.483C154.206 242.415 156.156 244.974 158.668 246.894C161.299 248.939 164.425 250.252 167.728 250.699C169.421 250.94 171.142 250.919 172.829 250.636C173.685 250.498 174.53 250.295 175.356 250.028C176.182 249.725 176.987 249.368 177.766 248.959C179.321 248.092 180.705 246.95 181.852 245.589C183.038 244.199 183.868 242.542 184.271 240.76C184.714 238.929 184.486 237.001 183.628 235.324C182.777 233.627 181.365 232.277 179.633 231.501C178.756 231.104 177.793 230.936 176.833 231.012C175.882 231.106 174.973 231.45 174.197 232.008C172.723 233.176 171.707 234.824 171.325 236.665C170.908 238.427 170.81 240.25 171.035 242.047C171.212 243.806 171.604 245.538 172.203 247.202C173.315 250.485 175.278 253.415 177.893 255.691C180.434 257.871 183.612 259.171 186.953 259.397C190.039 259.711 193.136 258.916 195.689 257.155C198.243 255.393 200.085 252.78 200.887 249.784C201.707 247.109 201.599 244.235 200.579 241.63C200.1 240.387 199.277 239.306 198.206 238.513C197.67 238.122 197.049 237.864 196.394 237.761C195.749 237.666 195.092 237.791 194.527 238.115C194.01 238.451 193.578 238.903 193.263 239.434C192.949 239.965 192.762 240.561 192.715 241.177C192.564 242.303 192.61 243.446 192.851 244.556C193.209 246.581 193.818 248.553 194.663 250.427C195.395 252.055 196.307 253.595 197.381 255.021C198.278 256.228 199.292 257.345 200.407 258.355C201.928 259.773 203.642 260.969 205.499 261.906C205.975 262.16 206.465 262.387 206.967 262.586L207.483 262.785L206.985 262.54C206.659 262.377 206.151 262.178 205.535 261.825C203.71 260.847 202.025 259.628 200.525 258.201C198.146 255.959 196.226 253.276 194.872 250.3C194.026 248.448 193.417 246.497 193.06 244.493C192.838 243.411 192.798 242.299 192.942 241.204C192.986 240.64 193.157 240.094 193.443 239.606C193.728 239.118 194.121 238.701 194.591 238.386C195.093 238.1 195.677 237.991 196.249 238.078C196.837 238.184 197.393 238.426 197.87 238.785C198.887 239.538 199.666 240.566 200.117 241.748C201.098 244.281 201.191 247.073 200.38 249.666C199.593 252.565 197.802 255.091 195.326 256.793C192.851 258.496 189.852 259.264 186.862 258.962C183.623 258.728 180.545 257.457 178.083 255.338C175.531 253.113 173.617 250.248 172.539 247.039C171.956 245.406 171.573 243.708 171.397 241.983C171.181 240.24 171.279 238.473 171.687 236.765C172.046 235.03 173.009 233.479 174.405 232.389C175.118 231.875 175.955 231.562 176.829 231.481C177.704 231.4 178.584 231.553 179.379 231.927C181.015 232.664 182.346 233.945 183.148 235.551C183.952 237.124 184.164 238.934 183.746 240.651C183.308 242.332 182.525 243.903 181.445 245.263C180.365 246.624 179.014 247.744 177.476 248.552C176.722 248.944 175.945 249.289 175.148 249.585C172.756 250.364 170.219 250.59 167.728 250.246C166.111 250.021 164.53 249.585 163.026 248.95C161.556 248.323 160.171 247.514 158.903 246.54C156.447 244.664 154.541 242.16 153.386 239.292C152.855 237.926 152.582 236.473 152.579 235.007C152.548 233.592 152.858 232.19 153.485 230.921C153.813 230.328 154.242 229.798 154.754 229.354C155.276 228.935 155.877 228.627 156.521 228.448C157.158 228.325 157.813 228.331 158.447 228.465C159.082 228.599 159.684 228.858 160.217 229.227C161.272 229.921 162.103 230.906 162.609 232.063C163.069 233.183 163.222 234.406 163.053 235.605C162.709 237.856 161.61 239.923 159.936 241.467C158.434 242.834 156.64 243.841 154.69 244.411C152.987 244.89 151.223 245.122 149.454 245.1C147.963 245.09 146.476 244.963 145.005 244.719C142.963 244.385 140.94 243.943 138.944 243.397L137.386 242.971L136.888 242.944Z" fill="#263238"/>
<path d="M182.523 31.0215H250.908V57.1686H182.523V31.0215Z" fill="#E0E0E0"/>
<path d="M182.523 57.1594C182.523 57.1594 182.523 56.9963 182.523 56.6883C182.523 56.3803 182.523 55.9182 182.523 55.3293C182.523 54.1243 182.523 52.3848 182.523 50.1379C182.523 45.6079 182.577 39.1119 182.613 31.0213L182.45 31.1844L250.826 31.2569L250.591 31.0213C250.591 40.1538 250.591 48.9873 250.591 57.1594L250.817 56.9329L201.893 57.0416L187.642 57.1051H183.809H182.813H182.468C182.574 57.114 182.68 57.114 182.785 57.1051H183.755H187.533L201.739 57.1685L250.853 57.2681H251.08V57.0416C251.08 48.8876 251.08 40.036 251.08 30.9035L250.844 30.668L182.468 30.7405H182.305V30.9035C182.305 39.0575 182.369 45.5807 182.396 50.1198C182.396 52.3486 182.396 54.079 182.396 55.2749C182.396 55.8457 182.396 56.2897 182.396 56.6068C182.396 56.9239 182.523 57.1594 182.523 57.1594Z" fill="#263238"/>
<path d="M100.62 433.521H144.906C145.856 433.521 146.768 433.148 147.446 432.482C148.124 431.816 148.513 430.911 148.53 429.96L149.599 310.522H98.1198L97.0507 429.888C97.0482 430.841 97.4215 431.757 98.0897 432.437C98.7579 433.117 99.6671 433.507 100.62 433.521Z" fill="#00AB38"/>
<g opacity="0.3">
<path d="M107.134 337.033V428.983C107.134 428.983 99.8865 431.393 99.5331 425.051C99.1798 418.709 99.3701 337.015 99.3701 337.015L107.134 337.033Z" fill="white"/>
</g>
<path d="M102.976 304.462H144.652C145.373 304.462 146.064 304.748 146.574 305.258C147.084 305.768 147.37 306.459 147.37 307.18V309.853H100.258V307.135C100.27 306.422 100.561 305.742 101.07 305.242C101.578 304.742 102.263 304.462 102.976 304.462Z" fill="#FAFAFA"/>
<path d="M102.976 304.462C102.826 304.44 102.673 304.44 102.523 304.462C102.076 304.517 101.651 304.689 101.291 304.96C100.992 305.181 100.741 305.461 100.552 305.781C100.364 306.102 100.242 306.457 100.195 306.826C100.195 307.732 100.195 308.638 100.195 309.798V309.907H100.312C108.947 309.97 125.626 310.024 144.706 310.024H147.651V307.261C147.665 306.811 147.577 306.364 147.393 305.953C147.21 305.542 146.935 305.177 146.591 304.887C146.246 304.6 145.84 304.396 145.404 304.289C144.986 304.214 144.56 304.187 144.136 304.208H141.726H132.566L117.164 304.262L106.808 304.335L117.164 304.407L132.566 304.462H141.726H144.136C144.524 304.439 144.913 304.463 145.295 304.534C145.66 304.626 146 304.796 146.292 305.032C147.596 306.02 147.071 307.923 147.198 309.562L147.433 309.327H144.715C125.608 309.327 108.928 309.372 100.321 309.445L100.439 309.562C100.439 308.448 100.439 307.442 100.439 306.618C100.474 306.265 100.579 305.923 100.749 305.612C100.919 305.3 101.149 305.026 101.427 304.806C101.904 304.558 102.438 304.439 102.976 304.462Z" fill="#263238"/>
<path d="M95.0666 308.557H152.607C153.928 308.557 154.998 309.627 154.998 310.948V334.622C154.998 335.943 153.928 337.014 152.607 337.014H95.0666C93.7456 337.014 92.6748 335.943 92.6748 334.622V310.948C92.6748 309.627 93.7456 308.557 95.0666 308.557Z" fill="#FAFAFA"/>
<path d="M95.0666 337.033C95.0666 337.033 94.9035 337.033 94.6136 336.96C94.179 336.869 93.7796 336.655 93.463 336.344C92.403 335.547 92.8288 333.626 92.7654 331.425C92.7654 326.895 92.8107 320.417 92.8378 312.399C92.8378 311.9 92.8378 311.393 92.8378 310.876C92.8534 310.393 93.0285 309.928 93.3361 309.554C93.657 309.173 94.0924 308.906 94.5774 308.793C95.1008 308.736 95.6279 308.721 96.1538 308.747H102.985H118.061H152.589C152.934 308.745 153.275 308.826 153.583 308.984C153.89 309.142 154.155 309.371 154.355 309.653C154.549 309.922 154.677 310.232 154.727 310.559C154.745 310.928 154.745 311.297 154.727 311.665V324.983C154.727 327.864 154.727 330.7 154.727 333.481V334.523C154.725 334.836 154.657 335.145 154.527 335.429C154.398 335.711 154.21 335.963 153.976 336.166C153.741 336.369 153.466 336.519 153.168 336.607C152.859 336.693 152.537 336.724 152.217 336.697H149.209L121.005 336.743L101.979 336.824H96.8152L101.979 336.87L121.005 336.942L149.209 336.996H152.217C152.577 337.022 152.939 336.985 153.286 336.888C153.646 336.784 153.98 336.604 154.264 336.36C154.549 336.116 154.777 335.814 154.935 335.474C155.089 335.129 155.169 334.756 155.171 334.378V333.336C155.171 330.558 155.171 327.725 155.171 324.838C155.171 321.948 155.171 319.003 155.171 316.023V311.493C155.171 311.103 155.171 310.75 155.171 310.324C155.109 309.907 154.95 309.51 154.709 309.164C154.466 308.821 154.144 308.542 153.77 308.349C153.396 308.157 152.982 308.057 152.561 308.059H118.034H102.958H96.1266C95.5732 308.031 95.0183 308.052 94.4686 308.122C93.9071 308.264 93.4056 308.581 93.0372 309.028C92.6866 309.467 92.4865 310.007 92.4664 310.568V312.1C92.4664 320.109 92.5298 326.596 92.5479 331.126C92.5479 332.24 92.5479 333.237 92.5479 334.106C92.5204 334.48 92.5778 334.855 92.7159 335.203C92.854 335.552 93.0691 335.864 93.3452 336.118C93.6788 336.43 94.0986 336.635 94.5502 336.707C94.698 336.85 94.8738 336.961 95.0666 337.033Z" fill="#263238"/>
<path d="M151.374 336.543C151.51 336.543 151.61 330.482 151.61 323.016C151.61 315.551 151.51 309.48 151.374 309.48C151.239 309.48 151.139 315.542 151.139 323.016C151.139 330.491 151.248 336.543 151.374 336.543Z" fill="#263238"/>
<path d="M146.663 336.543C146.799 336.543 146.899 330.482 146.899 323.016C146.899 315.551 146.799 309.48 146.663 309.48C146.527 309.48 146.428 315.542 146.428 323.016C146.428 330.491 146.536 336.543 146.663 336.543Z" fill="#263238"/>
<path d="M141.952 336.543C142.079 336.543 142.188 330.482 142.188 323.016C142.188 315.551 142.079 309.48 141.952 309.48C141.825 309.48 141.717 315.542 141.717 323.016C141.717 330.491 141.825 336.543 141.952 336.543Z" fill="#263238"/>
<path d="M137.241 336.543C137.368 336.543 137.476 330.482 137.476 323.016C137.476 315.551 137.368 309.48 137.241 309.48C137.114 309.48 137.005 315.542 137.005 323.016C137.005 330.491 137.105 336.543 137.241 336.543Z" fill="#263238"/>
<path d="M132.521 336.543C132.656 336.543 132.756 330.482 132.756 323.016C132.756 315.551 132.656 309.48 132.521 309.48C132.385 309.48 132.285 315.542 132.285 323.016C132.285 330.491 132.394 336.543 132.521 336.543Z" fill="#263238"/>
<path d="M127.809 336.543C127.945 336.543 128.045 330.482 128.045 323.016C128.045 315.551 127.945 309.48 127.809 309.48C127.674 309.48 127.574 315.542 127.574 323.016C127.574 330.491 127.683 336.543 127.809 336.543Z" fill="#263238"/>
<path d="M123.098 336.543C123.225 336.543 123.334 330.482 123.334 323.016C123.334 315.551 123.225 309.48 123.098 309.48C122.971 309.48 122.863 315.542 122.863 323.016C122.863 330.491 122.971 336.543 123.098 336.543Z" fill="#263238"/>
<path d="M118.387 336.543C118.514 336.543 118.623 330.482 118.623 323.016C118.623 315.551 118.514 309.48 118.387 309.48C118.26 309.48 118.151 315.542 118.151 323.016C118.151 330.491 118.251 336.543 118.387 336.543Z" fill="#263238"/>
<path d="M113.676 336.543C113.803 336.543 113.911 330.482 113.911 323.016C113.911 315.551 113.803 309.48 113.676 309.48C113.549 309.48 113.431 315.542 113.431 323.016C113.431 330.491 113.54 336.543 113.676 336.543Z" fill="#263238"/>
<path d="M108.956 336.543C109.091 336.543 109.191 330.482 109.191 323.016C109.191 315.551 109.091 309.48 108.956 309.48C108.82 309.48 108.72 315.542 108.72 323.016C108.72 330.491 108.829 336.543 108.956 336.543Z" fill="#263238"/>
<path d="M104.244 336.543C104.371 336.543 104.48 330.482 104.48 323.016C104.48 315.551 104.371 309.48 104.244 309.48C104.118 309.48 104.009 315.542 104.009 323.016C104.009 330.491 104.118 336.543 104.244 336.543Z" fill="#263238"/>
<path d="M99.5332 336.543C99.66 336.543 99.7687 330.482 99.7687 323.016C99.7687 315.551 99.66 309.48 99.5332 309.48C99.4063 309.48 99.2976 315.542 99.2976 323.016C99.2976 330.491 99.3973 336.543 99.5332 336.543Z" fill="#263238"/>
<path d="M94.822 336.543C94.9488 336.543 95.0575 330.482 95.0575 323.016C95.0575 315.551 94.9488 309.48 94.822 309.48C94.6951 309.48 94.5864 315.542 94.5864 323.016C94.5864 330.491 94.6861 336.543 94.822 336.543Z" fill="#263238"/>
<path d="M100.974 358.45H145.54V394.138H100.974V358.45Z" fill="white"/>
<path d="M137.884 369.811L138.926 368.307H140.068V369.811H141.336V364.43H139.008C138.584 364.419 138.163 364.503 137.775 364.674C137.443 364.812 137.159 365.045 136.96 365.345C136.766 365.657 136.668 366.019 136.679 366.387C136.669 366.752 136.77 367.112 136.969 367.419C137.17 367.715 137.453 367.946 137.784 368.081L136.579 369.811H137.884ZM138.201 365.689C138.448 365.511 138.749 365.424 139.053 365.444H140.068V367.32H139.053C138.749 367.34 138.448 367.254 138.201 367.075C138.109 366.985 138.036 366.877 137.985 366.758C137.935 366.639 137.91 366.511 137.91 366.382C137.91 366.253 137.935 366.125 137.985 366.006C138.036 365.887 138.109 365.779 138.201 365.689Z" fill="#263238"/>
<path d="M135.166 373.526L136.398 371.76L137.603 373.526H138.953L137.069 370.935L138.881 368.435H137.54L136.371 370.083L135.221 368.435H133.943L135.755 370.89L133.862 373.526H135.166Z" fill="#263238"/>
<path d="M104.244 364.421H129.694V368.29H104.244V364.421Z" fill="#E0E0E0"/>
<path d="M107.134 377.893C107.134 378.02 114.564 378.128 123.732 378.128C132.901 378.128 140.33 378.02 140.33 377.893C140.33 377.766 132.901 377.657 123.732 377.657C114.564 377.657 107.134 377.802 107.134 377.893Z" fill="#263238"/>
<path d="M107.134 381.915C107.134 382.051 114.564 382.151 123.732 382.151C132.901 382.151 140.33 382.051 140.33 381.915C140.33 381.779 132.901 381.68 123.732 381.68C114.564 381.68 107.134 381.788 107.134 381.915Z" fill="#263238"/>
<path d="M125.535 386.962H142.731V390.278H125.535V386.962Z" fill="#E0E0E0"/>
<path d="M101.988 393.032C101.988 393.032 101.988 392.814 101.988 392.398C101.988 391.981 101.988 391.365 101.988 390.586C101.988 388.982 101.988 386.672 102.034 383.727C102.034 377.82 102.097 369.412 102.133 359.265L101.943 359.465H144.661C144.715 359.51 144.217 359.021 144.425 359.238V368.226C144.425 371.179 144.425 374.078 144.425 376.905C144.425 382.568 144.425 387.967 144.425 392.996L144.634 392.787L113.83 392.896L105.078 392.95H102.74H101.925C101.925 392.95 101.979 392.95 102.115 392.95H102.695H104.987L113.694 393.005L144.643 393.113H144.851V392.896C144.851 387.868 144.851 382.468 144.851 376.805C144.851 373.979 144.851 371.08 144.851 368.126V359.138C145.06 359.338 144.561 358.839 144.616 358.894H101.898H101.699V359.093C101.699 369.286 101.78 377.748 101.798 383.682C101.798 386.599 101.843 388.901 101.853 390.495C101.853 391.256 101.853 391.845 101.853 392.307C101.853 392.769 101.988 393.032 101.988 393.032Z" fill="#263238"/>
<path d="M146.663 423.782C146.799 423.782 146.899 405.155 146.899 382.179C146.899 359.203 146.799 340.575 146.663 340.575C146.527 340.575 146.428 359.203 146.428 382.179C146.428 405.155 146.536 423.782 146.663 423.782Z" fill="white"/>
<path d="M100.928 431.582C100.928 431.709 110.65 431.818 122.672 431.818C134.695 431.818 144.416 431.709 144.416 431.582C144.416 431.455 134.695 431.347 122.672 431.347C110.65 431.347 100.928 431.455 100.928 431.582Z" fill="#263238"/>
<path d="M56.7609 433.467H92.6385C93.4075 433.467 94.1455 433.163 94.6918 432.622C95.2382 432.081 95.5487 431.346 95.5558 430.577L96.4618 333.825H54.7858L53.9251 430.523C53.9153 431.288 54.2075 432.026 54.7384 432.577C55.2692 433.128 55.9959 433.448 56.7609 433.467Z" fill="#455A64"/>
<g opacity="0.3">
<path d="M62.0429 355.279V429.789C62.0429 429.789 56.172 431.737 55.8821 426.6C55.5921 421.463 55.7552 355.279 55.7552 355.279H62.0429Z" fill="white"/>
</g>
<path d="M59.189 328.878H91.959C92.6799 328.878 93.3712 329.164 93.8809 329.674C94.3906 330.184 94.677 330.875 94.677 331.596V333.218H56.4981V331.596C56.4981 330.88 56.7808 330.193 57.2846 329.684C57.7885 329.175 58.4728 328.885 59.189 328.878Z" fill="#FAFAFA"/>
<path d="M59.189 328.878C59.0597 328.86 58.9286 328.86 58.7994 328.878C58.4133 328.911 58.0407 329.035 57.7122 329.241C57.1668 329.572 56.7513 330.081 56.5344 330.681C56.4102 331.064 56.3549 331.466 56.3713 331.868C56.3713 332.294 56.3713 332.774 56.3713 333.209V333.408H56.4891C63.5468 333.481 76.8016 333.526 91.959 333.526H94.9126V333.29C94.9126 332.602 94.9126 331.977 94.9126 331.252C94.8088 330.541 94.4484 329.892 93.8993 329.428C93.3503 328.964 92.6505 328.717 91.9318 328.733H90.0111H82.7178L70.4506 328.779L62.2331 328.851L60.0044 328.896C59.7469 328.892 59.4895 328.907 59.2343 328.942C59.4906 328.961 59.7481 328.961 60.0044 328.942L62.2331 328.987L70.4506 329.059L82.7178 329.114H91.8865C92.487 329.099 93.0726 329.302 93.5354 329.685C94.0087 330.073 94.3164 330.627 94.3961 331.234C94.4505 331.832 94.3961 332.547 94.3961 333.209L94.6317 332.973H91.9137C76.7563 332.973 63.5015 333.019 56.4438 333.091L56.5616 333.209C56.5616 332.738 56.5616 332.303 56.5616 331.868C56.5318 331.489 56.5749 331.107 56.6884 330.745C56.8724 330.172 57.2464 329.68 57.7484 329.349C58.1848 329.081 58.6784 328.92 59.189 328.878Z" fill="#263238"/>
<path d="M52.7111 332.23H98.4188C99.7398 332.23 100.811 333.301 100.811 334.622V352.896C100.811 354.217 99.7398 355.288 98.4188 355.288H52.7111C51.3901 355.288 50.3192 354.217 50.3192 352.896V334.622C50.3192 333.301 51.3901 332.23 52.7111 332.23Z" fill="#FAFAFA"/>
<path d="M52.7201 355.279C52.2393 355.244 51.7765 355.081 51.3792 354.808C50.9194 354.467 50.5978 353.971 50.4732 353.413C50.4157 353.047 50.4005 352.676 50.428 352.307C50.428 351.909 50.428 351.474 50.428 351.03C50.428 347.406 50.4732 342.16 50.5004 335.709C50.5004 335.311 50.5004 334.885 50.5004 334.486C50.5245 334.097 50.6528 333.722 50.8719 333.399C51.0968 333.063 51.4083 332.794 51.7735 332.62C52.1386 332.446 52.5439 332.374 52.9466 332.411H58.4551H70.5955H98.4188C98.9776 332.413 99.5141 332.631 99.916 333.02C100.318 333.408 100.554 333.937 100.575 334.495C100.575 335.709 100.575 336.914 100.575 338.119V345.222C100.575 347.554 100.575 349.837 100.575 352.072C100.624 352.599 100.572 353.131 100.421 353.639C100.23 354.105 99.8887 354.494 99.4516 354.744C98.9946 354.972 98.4829 355.066 97.9748 355.016H96.3621L73.6397 355.071L58.3192 355.143H54.1516L58.3192 355.188L73.6397 355.261L96.3621 355.315H97.9748C98.5409 355.416 99.1237 355.36 99.66 355.152C100.187 354.851 100.599 354.382 100.829 353.82C100.94 353.531 101.002 353.224 101.01 352.914V352.072C101.01 349.837 101.01 347.554 101.01 345.222V334.532C100.984 333.851 100.696 333.207 100.207 332.734C99.7169 332.262 99.0633 331.997 98.3825 331.995H70.5593H58.4189H52.9104C52.4479 331.971 51.9871 332.066 51.5717 332.271C51.1563 332.475 50.8 332.783 50.5367 333.163C50.2913 333.54 50.1506 333.974 50.129 334.423C50.129 334.858 50.129 335.256 50.129 335.664C50.129 342.115 50.1924 347.342 50.2105 350.984C50.2105 351.428 50.2105 351.89 50.2105 352.262C50.1926 352.641 50.2169 353.021 50.283 353.394C50.4238 353.987 50.7829 354.505 51.2886 354.844C51.5939 355.052 51.9453 355.183 52.3124 355.225C52.444 355.267 52.5821 355.285 52.7201 355.279Z" fill="#263238"/>
<path d="M97.848 354.899C97.9748 354.899 98.0836 349.997 98.0836 343.945C98.0836 337.893 97.9748 332.982 97.848 332.982C97.7211 332.982 97.6124 337.884 97.6124 343.945C97.6124 350.006 97.7574 354.899 97.848 354.899Z" fill="#263238"/>
<path d="M94.07 354.899C94.1968 354.899 94.3055 349.997 94.3055 343.945C94.3055 337.893 94.1968 332.982 94.07 332.982C93.9431 332.982 93.8344 337.884 93.8344 343.945C93.8344 350.006 93.9341 354.899 94.07 354.899Z" fill="#263238"/>
<path d="M90.2466 354.899C90.3825 354.899 90.4822 349.997 90.4822 343.945C90.4822 337.893 90.3825 332.982 90.2466 332.982C90.1107 332.982 90.0111 337.884 90.0111 343.945C90.0111 350.006 90.1198 354.899 90.2466 354.899Z" fill="#263238"/>
<path d="M86.4324 354.899C86.5592 354.899 86.668 349.997 86.668 343.945C86.668 337.893 86.5592 332.982 86.4324 332.982C86.3056 332.982 86.1969 337.884 86.1969 343.945C86.1969 350.006 86.2965 354.899 86.4324 354.899Z" fill="#263238"/>
<path d="M82.6091 354.899C82.745 354.899 82.8446 349.997 82.8446 343.945C82.8446 337.893 82.745 332.982 82.6091 332.982C82.4732 332.982 82.3735 337.884 82.3735 343.945C82.3735 350.006 82.446 354.899 82.6091 354.899Z" fill="#263238"/>
<path d="M78.822 354.899C78.9488 354.899 79.0576 349.997 79.0576 343.945C79.0576 337.893 78.9488 332.982 78.822 332.982C78.6952 332.982 78.5864 337.884 78.5864 343.945C78.5864 350.006 78.6589 354.899 78.822 354.899Z" fill="#263238"/>
<path d="M74.9715 354.899C75.1074 354.899 75.2071 349.997 75.2071 343.945C75.2071 337.893 75.1074 332.982 74.9715 332.982C74.8356 332.982 74.7359 337.884 74.7359 343.945C74.7359 350.006 74.8447 354.899 74.9715 354.899Z" fill="#263238"/>
<path d="M71.1573 354.899C71.2841 354.899 71.3928 349.997 71.3928 343.945C71.3928 337.893 71.2841 332.982 71.1573 332.982C71.0304 332.982 70.9217 337.884 70.9217 343.945C70.9217 350.006 71.0304 354.899 71.1573 354.899Z" fill="#263238"/>
<path d="M67.3339 354.899C67.4698 354.899 67.5785 349.997 67.5785 343.945C67.5785 337.893 67.4698 332.982 67.3339 332.982C67.198 332.982 67.0984 337.884 67.0984 343.945C67.0984 350.006 67.2071 354.899 67.3339 354.899Z" fill="#263238"/>
<path d="M63.5196 354.899C63.6465 354.899 63.7552 349.997 63.7552 343.945C63.7552 337.893 63.6465 332.982 63.5196 332.982C63.3928 332.982 63.2841 337.884 63.2841 343.945C63.2841 350.006 63.42 354.899 63.5196 354.899Z" fill="#263238"/>
<path d="M59.7054 354.899C59.8322 354.899 59.941 349.997 59.941 343.945C59.941 337.893 59.8322 332.982 59.7054 332.982C59.5786 332.982 59.4699 337.884 59.4699 343.945C59.4699 350.006 59.5695 354.899 59.7054 354.899Z" fill="#263238"/>
<path d="M55.8821 354.899C56.018 354.899 56.1176 349.997 56.1176 343.945C56.1176 337.893 56.018 332.982 55.8821 332.982C55.7462 332.982 55.6465 337.884 55.6465 343.945C55.6465 350.006 55.7552 354.899 55.8821 354.899Z" fill="#263238"/>
<path d="M52.0678 354.899C52.1947 354.899 52.3034 349.997 52.3034 343.945C52.3034 337.893 52.1947 332.982 52.0678 332.982C51.941 332.982 51.8323 337.884 51.8323 343.945C51.8323 350.006 51.9319 354.899 52.0678 354.899Z" fill="#263238"/>
<path d="M57.0508 372.647H93.1549V401.558H57.0508V372.647Z" fill="white"/>
<path d="M86.976 381.852L87.8095 380.638H88.7155V381.852H89.694V377.494H87.882C87.5371 377.485 87.1942 377.55 86.8764 377.684C86.6086 377.799 86.3814 377.992 86.224 378.237C86.0704 378.489 85.9892 378.779 85.9892 379.075C85.9892 379.371 86.0704 379.66 86.224 379.913C86.3861 380.153 86.6165 380.339 86.8854 380.448L85.9069 381.852H86.976ZM87.2297 378.509C87.4309 378.369 87.6738 378.302 87.9182 378.318H88.7427V379.831H87.882C87.636 379.85 87.3914 379.779 87.1934 379.632C87.1126 379.564 87.0491 379.477 87.0082 379.38C86.9672 379.282 86.95 379.176 86.9579 379.07C86.9529 378.963 86.9733 378.857 87.0174 378.759C87.0614 378.661 87.128 378.576 87.2116 378.509H87.2297Z" fill="#263238"/>
<path d="M84.7472 384.86L85.7439 383.428L86.7223 384.86H87.8186L86.2965 382.758L87.7461 380.737H86.6589L85.7529 382.069L84.8469 380.737H83.8141L85.164 382.721L83.6329 384.86H84.7472Z" fill="#263238"/>
<path d="M59.7054 377.485H80.3169V380.62H59.7054V377.485Z" fill="#E0E0E0"/>
<path d="M62.0429 388.394C62.0429 388.53 68.0587 388.629 75.4879 388.629C82.9171 388.629 88.933 388.53 88.933 388.394C88.933 388.258 82.9171 388.158 75.4879 388.158C68.0587 388.158 62.0429 388.267 62.0429 388.394Z" fill="#263238"/>
<path d="M62.0429 391.664C62.0429 391.791 68.0587 391.9 75.4879 391.9C82.9171 391.9 88.933 391.791 88.933 391.664C88.933 391.537 82.9171 391.429 75.4879 391.429C68.0587 391.429 62.0429 391.528 62.0429 391.664Z" fill="#263238"/>
<path d="M76.9466 395.741H90.8809V398.423H76.9466V395.741Z" fill="#E0E0E0"/>
<path d="M57.8753 400.67C57.8753 400.67 57.8753 400.479 57.8753 400.144C57.8753 399.809 57.8753 399.292 57.8753 398.676C57.8753 397.363 57.8753 395.487 57.9206 393.114C57.9206 388.321 57.984 381.517 58.0202 373.308L57.83 373.508H92.4301L92.1946 373.272V376.896C92.1946 378.119 92.1946 379.324 92.1946 380.52V387.551C92.1946 392.135 92.1946 396.502 92.1946 400.588L92.4029 400.371L67.4608 400.479L60.3577 400.534H58.4642H57.9749H57.8028H58.4189H60.2309L67.2886 400.588L92.3667 400.697H92.5841V400.488C92.5841 396.402 92.5841 392.035 92.5841 387.451V373.136C92.7925 373.345 92.2942 372.846 92.3395 372.901H57.7394H57.5401V373.272C57.5401 381.526 57.6216 388.384 57.6397 393.204C57.6397 395.56 57.685 397.417 57.6941 398.713C57.6941 399.32 57.6941 399.8 57.6941 400.153C57.7399 400.33 57.8005 400.503 57.8753 400.67Z" fill="#263238"/>
<path d="M94.07 425.575C94.1968 425.575 94.3055 410.481 94.3055 391.872C94.3055 373.263 94.1968 358.169 94.07 358.169C93.9431 358.169 93.8344 373.254 93.8344 391.872C93.8344 410.49 93.9341 425.575 94.07 425.575Z" fill="white"/>
<path d="M57.0146 431.891C57.0146 432.027 64.8968 432.126 74.6091 432.126C84.3214 432.126 92.1946 432.027 92.1946 431.891C92.1946 431.755 84.3214 431.655 74.6091 431.655C64.8968 431.655 57.0146 431.764 57.0146 431.891Z" fill="#263238"/>
<path d="M346.717 394.772L352.724 416.108C352.724 416.108 333.58 429.535 334.314 433.585L375.084 423.102L367.048 389.472L346.717 394.772Z" fill="#455A64"/>
<path d="M364.901 411.061C365.328 411.09 365.729 411.275 366.028 411.58C366.327 411.886 366.503 412.292 366.522 412.719C366.521 413.147 366.356 413.558 366.061 413.868C365.766 414.178 365.364 414.363 364.937 414.386C364.483 414.361 364.055 414.167 363.738 413.841C363.421 413.516 363.237 413.083 363.224 412.629C363.306 411.768 364.239 410.871 365.036 411.079" fill="#E0E0E0"/>
<g opacity="0.6">
<path d="M375.084 423.102L374.178 419.75L335.419 431.03C335.419 431.03 333.798 432.298 334.323 433.557L375.084 423.102Z" fill="white"/>
</g>
<path d="M352.008 416.063C352.072 416.271 353.086 416.063 354.228 416.507C355.369 416.951 356.103 417.639 356.266 417.512C356.429 417.386 355.841 416.28 354.454 415.818C353.068 415.356 351.927 415.855 352.008 416.063Z" fill="#263238"/>
<path d="M348.176 418.97C348.176 419.188 349.082 419.306 349.988 420.003C350.894 420.701 351.292 421.553 351.492 421.489C351.691 421.426 351.492 420.248 350.414 419.414C349.335 418.581 348.131 418.78 348.176 418.97Z" fill="#263238"/>
<path d="M346.998 424.841C347.188 424.841 347.215 423.754 346.436 422.767C345.657 421.779 344.624 421.571 344.57 421.761C344.516 421.951 345.249 422.404 345.884 423.229C346.518 424.053 346.826 424.914 346.998 424.841Z" fill="#263238"/>
<path d="M351.166 411.053C351.301 411.216 352.144 410.699 353.286 410.491C354.427 410.283 355.397 410.418 355.46 410.21C355.523 410.002 354.5 409.503 353.159 409.766C351.818 410.029 351.03 410.917 351.166 411.053Z" fill="#263238"/>
<path d="M361.014 399.8L361.92 421.979C361.92 421.979 340.176 430.413 340.013 434.536L382.06 434.201L381.97 399.573L361.014 399.8Z" fill="#455A64"/>
<path d="M374.948 420.012C375.358 420.14 375.706 420.414 375.928 420.781C376.15 421.148 376.23 421.583 376.153 422.006C376.058 422.422 375.803 422.784 375.445 423.016C375.086 423.248 374.651 423.331 374.232 423.247C373.798 423.11 373.428 422.819 373.195 422.428C372.961 422.037 372.879 421.574 372.964 421.127C373.109 420.708 373.411 420.362 373.808 420.164C374.204 419.966 374.662 419.931 375.084 420.067" fill="#E0E0E0"/>
<g opacity="0.6">
<path d="M382.106 434.201L381.961 430.713L341.698 432.335C341.698 432.335 339.832 433.186 340.058 434.536L382.106 434.201Z" fill="white"/>
</g>
<path d="M361.277 421.77C361.277 421.979 362.309 422.069 363.333 422.731C364.357 423.392 364.892 424.28 365.082 424.199C365.272 424.117 364.955 422.903 363.705 422.115C362.454 421.326 361.231 421.571 361.277 421.77Z" fill="#263238"/>
<path d="M356.882 423.673C356.882 423.873 357.725 424.226 358.432 425.114C359.138 426.002 359.338 426.926 359.546 426.926C359.755 426.926 359.872 425.721 358.975 424.643C358.078 423.565 356.882 423.474 356.882 423.673Z" fill="#263238"/>
<path d="M354.418 429.1C354.608 429.145 354.88 428.094 354.346 426.943C353.811 425.793 352.851 425.34 352.76 425.521C352.67 425.702 353.277 426.309 353.666 427.252C354.056 428.194 354.246 429.082 354.418 429.1Z" fill="#263238"/>
<path d="M361.612 416.688C361.693 416.878 362.636 416.579 363.795 416.688C364.955 416.796 365.87 417.132 365.97 416.95C366.069 416.769 365.2 416.044 363.832 415.954C362.463 415.863 361.494 416.525 361.612 416.688Z" fill="#263238"/>
<path d="M387.025 237.472V255.012L382.432 323.342C382.432 323.342 385.295 356.493 387.052 375.211C388.574 391.455 386.083 419.759 386.083 419.759H359.32L349.716 325.381L343.773 266.491L333.408 239.728L387.025 237.472Z" fill="#263238"/>
<path d="M316.547 240.525L321.675 335.864L348.747 407.247L349.997 411.542L365.979 407.583L354.092 238.668L316.547 240.525Z" fill="#263238"/>
<path d="M343.863 267.216C343.854 267.349 343.854 267.482 343.863 267.614C343.863 267.904 343.863 268.285 343.863 268.774C343.863 269.825 343.936 271.329 343.999 273.25C344.108 277.127 344.38 282.736 344.76 289.667C345.567 303.528 347.071 322.654 349.426 343.709C351.782 364.765 354.291 383.773 356.158 397.526C357.064 404.375 357.87 409.929 358.405 413.834C358.676 415.736 358.894 417.222 359.039 418.255C359.12 418.744 359.175 419.161 359.22 419.406C359.235 419.538 359.262 419.668 359.302 419.795V419.397C359.302 419.116 359.22 418.735 359.166 418.246C359.039 417.204 358.858 415.718 358.622 413.807C358.133 409.938 357.417 404.375 356.529 397.499C354.717 383.736 352.262 364.729 349.943 343.673C347.623 322.618 346.038 303.528 345.141 289.676C344.715 282.754 344.389 277.146 344.235 273.268C344.135 271.347 344.063 269.852 344.008 268.801C344.008 268.312 343.954 267.895 343.936 267.642C343.927 267.497 343.903 267.355 343.863 267.216Z" fill="#455A64"/>
<path d="M342.169 243.37C342.176 243.641 342.263 243.903 342.419 244.125C342.574 244.347 342.792 244.517 343.044 244.616C343.296 244.715 343.572 244.737 343.836 244.68C344.101 244.623 344.343 244.489 344.532 244.295C344.721 244.101 344.849 243.855 344.899 243.589C344.949 243.323 344.92 243.048 344.815 242.799C344.709 242.549 344.533 242.336 344.307 242.186C344.082 242.037 343.817 241.957 343.546 241.957C343.363 241.958 343.181 241.995 343.012 242.067C342.843 242.139 342.69 242.244 342.562 242.375C342.434 242.507 342.333 242.662 342.266 242.833C342.198 243.004 342.165 243.186 342.169 243.37Z" fill="#455A64"/>
<path d="M318.64 256.688C319.353 256.178 319.987 255.568 320.525 254.876C321.909 253.239 323.044 251.407 323.895 249.44C324.751 247.475 325.319 245.397 325.58 243.27C325.732 242.396 325.753 241.505 325.644 240.625C325.562 240.625 325.508 241.63 325.236 243.225C324.87 245.291 324.262 247.308 323.424 249.232C322.581 251.142 321.514 252.946 320.244 254.604C319.283 255.909 318.586 256.624 318.64 256.688Z" fill="#455A64"/>
<path d="M321.838 151.465C321.838 151.465 316.719 153.477 314.346 160.978C312.697 166.197 304.978 205.046 304.978 205.046L315.741 212.14L320.117 175.764L321.838 151.465Z" fill="#E0E0E0"/>
<path d="M362.771 132.91L366.142 138.89C366.142 138.89 388.674 150.342 388.592 151.465C388.592 151.465 387.333 194.21 387.098 225.567C387.007 237.408 387.442 248.289 387.677 253.517C388.303 267.243 388.792 320.561 388.792 320.561L307.252 318.631L321.838 151.465L333.345 146.437L334.812 143.438L340.094 139.143L362.771 132.91Z" fill="#E0E0E0"/>
<path d="M327.066 319.075C327.054 318.955 327.054 318.833 327.066 318.713C327.066 318.45 327.066 318.097 327.111 317.653C327.166 316.683 327.238 315.306 327.338 313.549C327.546 309.97 327.854 304.824 328.244 298.491C329.014 285.753 330.056 268.194 331.243 248.797C332.43 229.399 333.372 211.841 334.106 199.094C334.441 192.752 334.722 187.615 334.912 184.027C335.012 182.269 335.084 180.901 335.138 179.932C335.138 179.488 335.193 179.134 335.211 178.872C335.218 178.75 335.233 178.629 335.256 178.509C335.266 178.63 335.266 178.751 335.256 178.872C335.256 179.134 335.256 179.488 335.256 179.941C335.256 180.901 335.184 182.278 335.12 184.036C334.994 187.596 334.767 192.752 334.468 199.112C333.87 211.796 332.91 229.417 331.75 248.833C330.59 268.249 329.467 285.798 328.606 298.509C328.171 304.851 327.809 309.979 327.564 313.567C327.428 315.315 327.32 316.692 327.247 317.653L327.157 318.722C327.14 318.843 327.109 318.961 327.066 319.075Z" fill="#263238"/>
<path d="M340.094 139.144L338.201 152.235L334.812 178.509L349.58 153.16L362.4 136.362L341.272 151.166L341.009 138.899" fill="#00AB38"/>
<path d="M366.241 139.687C366.139 140.04 366.002 140.383 365.834 140.711C365.517 141.427 365.1 142.378 364.574 143.547L359.99 153.513L359.936 153.639H359.791H356.71L356.855 153.223L359.12 155.08L359.329 155.252L359.138 155.442L354.844 159.646L341.027 173.046L336.806 177.06L335.637 178.138C335.509 178.272 335.366 178.39 335.211 178.491C335.311 178.332 335.433 178.189 335.573 178.065L336.67 176.924L340.792 172.792L354.5 159.293C355.976 157.843 357.426 156.439 358.803 155.098V155.451L356.547 153.585L356.049 153.168H356.701H359.782L359.582 153.295C361.512 149.272 363.143 145.866 364.33 143.402C364.901 142.251 365.354 141.318 365.698 140.62C365.854 140.295 366.036 139.983 366.241 139.687Z" fill="#263238"/>
<path d="M334.812 178.482C334.672 177.947 334.572 177.402 334.513 176.851C334.35 175.719 334.142 174.215 333.888 172.394C333.381 168.625 332.71 163.415 332.004 157.662L331.351 152.299V152.09L331.56 152.036L335.265 151.13V151.565L331.551 150.904L331.297 150.858L331.406 150.632L333.852 145.314C334.133 144.743 334.359 144.263 334.55 143.873C334.617 143.696 334.712 143.531 334.83 143.384C334.793 143.569 334.732 143.748 334.649 143.918C334.486 144.317 334.287 144.824 334.051 145.404C333.471 146.763 332.692 148.584 331.759 150.786L331.614 150.523L335.338 151.13L336.407 151.302L335.356 151.565L331.659 152.471L331.841 152.217C332.058 153.921 332.275 155.724 332.511 157.572C333.218 163.334 333.834 168.543 334.251 172.321C334.441 174.133 334.604 175.665 334.722 176.851C334.794 177.392 334.824 177.937 334.812 178.482Z" fill="#263238"/>
<path d="M347.415 248.435H347.94L349.508 248.534L355.523 248.969L377.068 250.627H377.286V250.845C376.941 254.894 376.561 259.298 376.162 263.936C375.963 266.268 375.757 268.651 375.546 271.085C375.437 272.308 375.338 273.531 375.229 274.772C375.191 275.414 375.091 276.052 374.93 276.675C374.739 277.318 374.452 277.929 374.078 278.487C372.859 280.133 371.039 281.23 369.014 281.54C367.109 281.776 365.189 281.879 363.27 281.848C359.646 281.858 356.033 281.463 352.497 280.67C351.659 280.467 350.838 280.197 350.042 279.864C349.646 279.703 349.264 279.509 348.901 279.284C348.716 279.161 348.544 279.021 348.384 278.867C348.238 278.707 348.102 278.537 347.976 278.36C347.204 276.939 346.727 275.376 346.572 273.766C346.215 270.939 346.073 268.089 346.146 265.241C346.228 260.022 346.599 255.819 346.88 252.919C347.016 251.47 347.152 250.355 347.252 249.594C347.252 249.232 347.342 248.951 347.369 248.688C347.375 248.589 347.396 248.491 347.433 248.398C347.433 248.398 347.433 248.498 347.433 248.697C347.433 248.897 347.433 249.205 347.36 249.603C347.288 250.401 347.197 251.515 347.08 252.937C346.853 255.837 346.536 260.041 346.5 265.241C346.459 268.069 346.619 270.897 346.98 273.703C347.14 275.25 347.605 276.749 348.348 278.115C348.816 278.753 349.477 279.223 350.232 279.456C351.005 279.776 351.802 280.034 352.615 280.226C356.117 280.999 359.693 281.381 363.279 281.368C365.168 281.396 367.057 281.293 368.932 281.06C370.831 280.771 372.54 279.746 373.689 278.206C374.022 277.701 374.284 277.152 374.468 276.575C374.618 275.981 374.712 275.374 374.749 274.763C374.858 273.522 374.966 272.29 375.066 271.067C375.283 268.638 375.492 266.247 375.7 263.927C376.117 259.279 376.506 254.867 376.869 250.836L377.059 251.071L355.668 249.205L349.616 248.652L348.004 248.498C347.806 248.491 347.609 248.469 347.415 248.435Z" fill="#263238"/>
<g opacity="0.3">
<path d="M374.885 276.095C372.583 282.092 366.577 282.437 360.108 281.531C354.029 280.625 348.176 279.365 347.723 277.626C347.886 280.806 350.223 283.243 353.159 284.521C356.139 285.66 359.339 286.109 362.518 285.834C365.843 285.68 368.715 285.834 371.46 283.941C374.205 282.047 374.894 278.831 374.885 276.095Z" fill="black"/>
</g>
<path d="M313.213 250.292C313.221 250.216 313.221 250.14 313.213 250.065L313.295 249.413C313.355 248.809 313.446 247.966 313.567 246.885C313.784 244.638 314.092 241.449 314.473 237.571C315.216 229.707 316.212 218.835 317.263 206.831C318.314 194.826 319.22 183.945 319.827 176.027C320.126 172.086 320.343 168.897 320.47 166.695C320.543 165.59 320.57 164.738 320.588 164.149C320.588 163.886 320.588 163.669 320.588 163.488C320.601 163.413 320.601 163.336 320.588 163.261C320.371 165.816 318.858 183.13 316.792 206.749C315.759 218.745 314.817 229.599 314.137 237.508C313.82 241.413 313.558 244.584 313.376 246.831C313.295 247.9 313.231 248.751 313.186 249.367C313.186 249.63 313.186 249.848 313.186 250.029C313.182 250.117 313.191 250.206 313.213 250.292Z" fill="#263238"/>
<path d="M301.399 205.907C301.051 207.162 300.922 208.468 301.019 209.767C301.209 211.751 301.299 216.625 306.581 218.292C311.863 219.959 314.427 218.364 316.049 216.127L316.855 206.432L311.202 202.7L301.399 205.907Z" fill="#E0E0E0"/>
<g opacity="0.3">
<path d="M345.53 212.14C345.53 212.14 359.039 225.486 369.53 227.406C380.022 229.327 383.773 225.594 386.563 216.199L345.53 212.14Z" fill="black"/>
</g>
<path d="M388.348 151.139C388.348 151.139 396.928 159.094 394.481 177.93C392.216 195.433 388.139 219.805 382.812 222.641C377.485 225.476 365.843 224.054 357.354 219.243C348.864 214.432 324.266 201.422 324.266 201.422L334.45 183.302L367.256 195.986C367.256 195.986 371.496 166.994 374.042 161.957" fill="#E0E0E0"/>
<path d="M374.178 161.622C374.178 161.622 374.087 161.812 373.924 162.183C373.852 162.365 373.743 162.591 373.634 162.872C373.526 163.153 373.435 163.497 373.308 163.868C372.828 165.372 372.257 167.628 371.632 170.564C370.364 176.426 368.833 184.978 367.22 195.633L367.455 195.488L334.667 182.713L334.486 182.641L334.386 182.813C331.17 188.539 327.746 194.591 324.194 200.933L324.076 201.15L324.294 201.268L345.331 212.602L355.65 218.156C357.345 219.062 359.03 220.013 360.778 220.765C362.523 221.503 364.315 222.123 366.142 222.623C369.7 223.619 373.394 224.047 377.086 223.891C378.886 223.811 380.66 223.428 382.332 222.758L382.948 222.487C383.147 222.387 383.338 222.242 383.537 222.115C383.874 221.83 384.177 221.508 384.443 221.155C384.982 220.46 385.447 219.71 385.829 218.917C387.243 215.87 388.347 212.689 389.127 209.422C389.951 206.278 390.604 203.189 391.193 200.19C392.352 194.201 393.213 188.584 393.911 183.447C394.608 178.31 395.27 173.635 395.079 169.495C394.99 165.956 394.361 162.452 393.213 159.103C392.469 156.994 391.422 155.004 390.105 153.196C389.76 152.729 389.384 152.284 388.982 151.864C388.845 151.723 388.699 151.59 388.547 151.465L388.946 151.9C389.33 152.33 389.69 152.781 390.024 153.25C391.299 155.071 392.312 157.063 393.032 159.166C394.156 162.5 394.767 165.986 394.844 169.504C395.007 173.617 394.355 178.265 393.612 183.393C392.869 188.521 391.99 194.138 390.812 200.118C390.223 203.098 389.562 206.179 388.728 209.313C387.953 212.549 386.857 215.699 385.458 218.718C385.092 219.475 384.652 220.194 384.144 220.865C383.876 221.199 383.572 221.503 383.238 221.771C383.071 221.889 382.895 221.995 382.713 222.088L382.133 222.351C380.501 222.989 378.774 223.347 377.023 223.411C373.382 223.56 369.741 223.135 366.232 222.151C364.432 221.661 362.664 221.056 360.941 220.339C359.202 219.587 357.553 218.654 355.85 217.748L345.53 212.185L324.484 200.86L324.584 201.187L334.749 183.067L334.468 183.166L367.292 195.85L367.501 195.932V195.714C369.068 185.069 370.545 176.507 371.75 170.636C372.339 167.701 372.882 165.436 373.335 163.932C373.444 163.56 373.544 163.225 373.634 162.935L373.897 162.238C374.078 161.821 374.178 161.622 374.178 161.622Z" fill="#263238"/>
<path d="M362.4 183.329H346.119V177.911H362.4V183.329Z" fill="white"/>
<path d="M359.03 180.294C357.35 180.05 355.651 179.968 353.956 180.05C352.258 179.968 350.556 180.05 348.873 180.294C350.557 180.527 352.258 180.606 353.956 180.53C355.651 180.606 357.349 180.527 359.03 180.294Z" fill="#263238"/>
<g opacity="0.3">
<path d="M335.637 178.156L359.6 158.713L359.03 157.019H361.113L364.574 143.547L359.591 153.332L356.71 153.196L358.803 155.116L335.637 178.156Z" fill="black"/>
</g>
<path d="M365.236 155.995L364.33 155.633C364.33 155.588 366.296 150.904 368.226 145.939C368.919 144.413 369.2 142.733 369.041 141.064C368.932 140.54 368.642 140.07 368.221 139.739C367.8 139.407 367.275 139.235 366.74 139.252L366.106 138.917L365.779 138.337C367.455 137.975 369.702 139.379 369.974 140.929C370.151 142.771 369.838 144.627 369.068 146.31C367.211 151.302 365.263 155.95 365.236 155.995Z" fill="#455A64"/>
<path d="M366.649 166.94L365.444 166.469C366.432 163.923 367.782 159.42 367.202 158.152C366.916 157.699 366.537 157.312 366.09 157.017C365.644 156.722 365.139 156.525 364.611 156.439C363.964 156.269 363.286 156.25 362.63 156.385C361.975 156.52 361.359 156.806 360.833 157.219C359.456 158.387 357.372 162.501 356.683 163.995L355.514 163.452C355.614 163.225 358.115 157.817 359.999 156.204C360.677 155.661 361.472 155.284 362.321 155.101C363.171 154.919 364.05 154.937 364.892 155.153C365.622 155.279 366.314 155.569 366.916 156.001C367.519 156.432 368.016 156.994 368.371 157.644C369.349 159.746 367.111 165.798 366.649 166.94Z" fill="#455A64"/>
<path d="M353.639 186.582C352.153 186.582 350.685 185.784 349.281 184.208L349.77 183.773C351.311 185.522 352.905 186.21 354.482 185.839C360.923 184.326 365.834 166.432 365.879 166.251L366.504 166.414C366.296 167.166 361.449 184.869 354.636 186.464C354.309 186.543 353.975 186.583 353.639 186.582Z" fill="#263238"/>
<path d="M350.522 184.942C350.391 185.073 350.218 185.152 350.033 185.166C349.848 185.179 349.665 185.125 349.517 185.014L348.121 183.972C348.017 183.907 347.927 183.822 347.857 183.721C347.787 183.62 347.739 183.506 347.714 183.386C347.69 183.265 347.69 183.141 347.715 183.021C347.739 182.901 347.788 182.787 347.859 182.686C347.933 182.57 348.032 182.472 348.15 182.4C348.267 182.328 348.4 182.284 348.537 182.271C348.674 182.258 348.812 182.276 348.941 182.324C349.07 182.373 349.186 182.45 349.281 182.55L350.54 183.855C350.682 184.001 350.759 184.198 350.756 184.402C350.753 184.606 350.669 184.8 350.522 184.942Z" fill="#263238"/>
<path d="M356.375 187.171C355.537 187.235 354.696 187.089 353.929 186.746C353.161 186.402 352.492 185.873 351.981 185.205C348.022 179.651 355.487 164.231 355.804 163.579L356.384 163.859C356.312 164.023 348.765 179.588 352.506 184.833C353.485 186.201 355.224 186.745 357.598 186.446L357.68 187.08C357.247 187.14 356.812 187.171 356.375 187.171Z" fill="#263238"/>
<path d="M356.257 186.818C356.27 187.002 356.348 187.175 356.478 187.307C356.607 187.438 356.78 187.519 356.964 187.533L358.704 187.678C358.824 187.697 358.947 187.692 359.066 187.662C359.184 187.633 359.295 187.58 359.392 187.506C359.49 187.432 359.571 187.34 359.632 187.234C359.692 187.128 359.731 187.011 359.745 186.89C359.768 186.754 359.759 186.615 359.72 186.483C359.68 186.35 359.611 186.229 359.518 186.128C359.424 186.026 359.309 185.948 359.18 185.898C359.052 185.848 358.913 185.828 358.776 185.839L356.964 185.993C356.762 186.012 356.575 186.108 356.443 186.262C356.311 186.416 356.245 186.615 356.257 186.818Z" fill="#263238"/>
<path d="M325.254 167.9C322.712 167.9 320.652 165.84 320.652 163.298C320.652 160.756 322.712 158.695 325.254 158.695C327.796 158.695 329.857 160.756 329.857 163.298C329.857 165.84 327.796 167.9 325.254 167.9Z" fill="#263238"/>
<path d="M325.254 167.9C322.712 167.9 320.652 165.84 320.652 163.298C320.652 160.756 322.712 158.695 325.254 158.695C327.796 158.695 329.857 160.756 329.857 163.298C329.857 165.84 327.796 167.9 325.254 167.9Z" fill="#263238"/>
<path d="M328.652 163.297C328.653 163.972 328.455 164.632 328.081 165.193C327.708 165.755 327.176 166.193 326.553 166.452C325.93 166.711 325.244 166.779 324.583 166.648C323.921 166.517 323.313 166.192 322.836 165.715C322.359 165.238 322.035 164.63 321.903 163.969C321.772 163.307 321.84 162.621 322.099 161.999C322.358 161.376 322.796 160.844 323.358 160.47C323.92 160.097 324.579 159.898 325.254 159.9C326.155 159.9 327.019 160.258 327.656 160.895C328.294 161.532 328.652 162.396 328.652 163.297Z" fill="#E0E0E0"/>
<path d="M335.021 143.248C334.586 143.873 329.775 154.029 327.148 159.148L326.377 158.749C326.767 157.998 333.761 143.565 334.305 142.759L339.397 138.618L339.578 139.588L335.021 143.248Z" fill="#455A64"/>
<path d="M336.95 163.189C333.616 166.514 325.172 175.166 325.172 175.166L322.917 173.807L334.803 161.123C335.044 160.866 335.369 160.703 335.719 160.663C336.069 160.623 336.422 160.709 336.715 160.906C336.898 161.027 337.052 161.187 337.165 161.375C337.279 161.563 337.349 161.773 337.372 161.992C337.394 162.21 337.368 162.431 337.295 162.638C337.223 162.845 337.105 163.033 336.95 163.189Z" fill="#263238"/>
<path d="M334.55 182.931L331.714 174.94C331.42 174.078 330.872 173.324 330.143 172.778C329.414 172.232 328.538 171.918 327.628 171.877H327.202C325.499 172.068 316.828 172.638 316.828 172.638L313.476 176.398C313.2 176.711 313.048 177.114 313.048 177.531C313.048 177.948 313.2 178.351 313.476 178.663L312.507 185.458L314.382 186.763L314.192 191.51C314.192 191.51 315.886 192.634 316.638 192.262L317.399 191.882L318.522 190.749L321.73 195.279L326.16 197.843L334.55 182.931Z" fill="#FFBF9D"/>
<path d="M313.422 179.044C313.801 178.583 314.206 178.144 314.636 177.73C315.118 177.316 315.666 176.985 316.257 176.752C317.027 176.57 317.813 176.464 318.604 176.435C320.685 176.32 322.754 176.041 324.792 175.601C322.708 175.551 320.624 175.667 318.559 175.945C317.728 175.973 316.903 176.1 316.103 176.326C315.468 176.595 314.89 176.982 314.4 177.467C313.909 177.871 313.565 178.425 313.422 179.044Z" fill="#FF9A6C"/>
<path d="M313.612 185.286C313.806 184.695 314.039 184.117 314.31 183.556C315.083 182.273 316.263 181.284 317.662 180.747C319.085 180.235 320.588 179.98 322.101 179.995C322.736 180.038 323.373 180.02 324.004 179.941C323.391 179.736 322.747 179.638 322.101 179.651C320.533 179.53 318.958 179.746 317.481 180.285C315.977 180.857 314.738 181.963 314.001 183.393C313.662 183.962 313.524 184.629 313.612 185.286Z" fill="#FF9A6C"/>
<path d="M314.464 191.112C314.777 190.541 314.933 189.897 314.917 189.245C314.953 188.577 315.097 187.92 315.342 187.297C315.51 186.94 315.763 186.63 316.079 186.395C316.395 186.159 316.764 186.006 317.154 185.947C318.648 185.628 320.161 185.41 321.684 185.295C322.331 185.269 322.967 185.122 323.56 184.86C322.921 184.845 322.282 184.875 321.648 184.951C320.097 184.963 318.552 185.136 317.037 185.467C316.58 185.581 316.15 185.781 315.768 186.056C315.414 186.333 315.139 186.699 314.971 187.116C314.723 187.789 314.604 188.502 314.618 189.218C314.572 190.396 314.382 191.084 314.464 191.112Z" fill="#FF9A6C"/>
<path d="M309.734 176.126L347.134 214.749L345.693 216.208L318.903 213.191L282.853 178.844L282.889 177.196L309.734 176.126Z" fill="#455A64"/>
<g opacity="0.3">
<path d="M302.731 194.138C303.612 193.334 304.652 192.724 305.783 192.346C306.914 191.969 308.112 191.832 309.299 191.945C311.678 192.189 313.93 193.135 315.768 194.663C317.325 195.804 318.46 197.429 318.994 199.284C319.755 202.527 317.082 207.066 314.137 208.643C310.405 205.644 306.772 201.042 303.039 198.052C302.433 197.66 301.977 197.076 301.743 196.394C301.712 195.966 301.785 195.537 301.957 195.143C302.13 194.75 302.395 194.405 302.731 194.138Z" fill="black"/>
</g>
<path d="M282.998 178.772C283.161 178.783 283.325 178.783 283.487 178.772H284.919L290.282 178.709L308.946 178.382L308.774 178.31L318.142 188.031L337.576 208.027L343.501 214.043L345.132 215.664C345.316 215.858 345.512 216.04 345.721 216.208C345.561 215.998 345.382 215.804 345.186 215.628L343.619 213.943L337.802 207.818C332.828 202.645 326.024 195.551 318.477 187.723C315.17 184.299 311.99 181.019 309.091 178.029L309.018 177.957H308.946L290.31 178.491L284.955 178.681L283.524 178.754C283.348 178.741 283.172 178.747 282.998 178.772Z" fill="#263238"/>
<path d="M306.409 190.097C306.409 190.097 302.785 190.17 301.598 190.759C300.411 191.347 297.168 194.79 297.168 194.79C297.168 194.79 297.168 197.146 298.074 197.236C297.958 197.763 297.894 198.301 297.884 198.84C297.793 200.163 297.603 200.915 299.397 202.047C299.397 202.047 299.207 204.213 299.868 204.765C300.315 205.141 300.787 205.486 301.281 205.798C301.281 205.798 301.381 208.181 304.579 208.154L307.578 209.477C307.578 209.477 314.246 208.851 313.539 208.063C312.833 207.275 311.229 203.37 311.229 203.37C311.229 203.37 315.759 200.045 315.705 199.012C315.65 197.979 315.234 197.88 315.234 197.88C315.234 197.88 315.415 195.905 313.82 195.714C313.82 195.714 312.588 193.259 311.365 193.169C310.142 193.078 301.843 196.086 301.843 196.086L304.951 193.449C304.951 193.449 308.067 192.978 307.968 191.936C307.868 190.894 306.409 190.097 306.409 190.097Z" fill="#FFBF9D"/>
<path d="M306.953 202.518C308.391 201.912 309.797 201.231 311.166 200.48C312.604 199.864 314.011 199.174 315.379 198.414C313.827 198.703 312.331 199.238 310.948 200C309.493 200.625 308.145 201.475 306.953 202.518Z" fill="#FF9A6C"/>
<path d="M302.604 199.637C304.463 199.207 306.281 198.619 308.04 197.88C309.847 197.294 311.599 196.551 313.277 195.66C311.418 196.09 309.599 196.678 307.841 197.418C306.034 198.004 304.282 198.747 302.604 199.637Z" fill="#FF9A6C"/>
<path d="M361.657 116.149C362.863 112.04 363.718 107.837 364.212 103.583C364.706 99.309 364.133 94.9792 362.545 90.9806C362.282 90.3826 360.144 86.4506 359.51 86.505C359.048 86.5684 360.416 90.3101 360.217 90.7269C358.187 94.6589 357.825 99.2886 358.405 103.683C359.01 107.945 360.088 112.126 361.621 116.149" fill="#263238"/>
<path d="M361.231 99.814C361.032 89.0688 354.608 80.2444 343.881 80.788L342.894 80.8967C338.089 81.3924 333.649 83.6816 330.458 87.3074C327.267 90.9331 325.561 95.6288 325.68 100.457C325.906 109.762 326.278 120.036 326.858 124.983C328.063 135.211 338.482 135.728 338.482 135.728L340.855 151.51L362.771 136.271L361.231 99.814Z" fill="#FFBF9D"/>
<path d="M338.518 135.764C343.25 135.25 347.736 133.392 351.446 130.41C351.446 130.41 349.399 139.171 339.08 139.325L338.518 135.764Z" fill="#FF9A6C"/>
<path d="M329.621 108.983C329.658 109.364 329.842 109.716 330.135 109.963C330.428 110.21 330.806 110.333 331.188 110.305C331.376 110.301 331.561 110.259 331.732 110.182C331.903 110.104 332.057 109.994 332.184 109.856C332.312 109.718 332.41 109.556 332.474 109.38C332.538 109.204 332.566 109.016 332.556 108.829C332.52 108.446 332.335 108.094 332.043 107.845C331.75 107.596 331.372 107.472 330.989 107.497C330.801 107.503 330.616 107.546 330.445 107.624C330.274 107.702 330.12 107.814 329.993 107.952C329.865 108.091 329.767 108.253 329.703 108.43C329.639 108.607 329.611 108.795 329.621 108.983Z" fill="#263238"/>
<path d="M328.353 104.435C328.552 104.598 329.576 103.665 331.152 103.529C332.729 103.393 333.961 104.036 334.115 103.828C334.269 103.619 333.97 103.402 333.426 103.094C332.695 102.69 331.855 102.525 331.025 102.623C330.207 102.706 329.437 103.045 328.824 103.592C328.38 103.991 328.253 104.353 328.353 104.435Z" fill="#263238"/>
<path d="M343.093 108.349C343.13 108.731 343.314 109.084 343.607 109.333C343.899 109.581 344.277 109.706 344.661 109.681C344.849 109.675 345.034 109.632 345.205 109.553C345.376 109.475 345.529 109.364 345.657 109.225C345.784 109.087 345.883 108.925 345.947 108.748C346.01 108.571 346.038 108.383 346.029 108.195C345.981 107.821 345.792 107.479 345.501 107.24C345.209 107.001 344.837 106.882 344.461 106.908C344.277 106.913 344.095 106.954 343.926 107.029C343.758 107.104 343.606 107.211 343.479 107.345C343.352 107.479 343.252 107.636 343.186 107.809C343.12 107.981 343.088 108.164 343.093 108.349Z" fill="#263238"/>
<path d="M343.845 103.438C344.044 103.61 345.068 102.677 346.645 102.532C348.221 102.387 349.453 103.04 349.607 102.822C349.761 102.605 349.462 102.405 348.919 102.097C348.187 101.693 347.348 101.528 346.518 101.626C345.7 101.709 344.929 102.048 344.316 102.596C343.872 103.003 343.745 103.366 343.845 103.438Z" fill="#263238"/>
<path d="M339.469 116.14C338.611 115.963 337.734 115.899 336.86 115.95C336.461 115.95 336.072 115.95 335.954 115.642C335.877 115.229 335.927 114.802 336.099 114.419L336.96 111.23C338.155 106.7 338.971 102.985 338.772 102.94C338.572 102.895 337.476 106.564 336.28 111.094C335.999 112.208 335.727 113.277 335.465 114.292C335.277 114.81 335.277 115.378 335.465 115.896C335.537 116.031 335.639 116.147 335.763 116.237C335.887 116.326 336.03 116.386 336.18 116.412C336.412 116.442 336.646 116.442 336.878 116.412C337.75 116.428 338.62 116.337 339.469 116.14Z" fill="#263238"/>
<path d="M344.217 116.738C343.963 116.738 344.135 118.46 342.803 119.828C341.471 121.196 339.632 121.196 339.641 121.441C339.65 121.685 340.085 121.73 340.855 121.667C341.857 121.577 342.795 121.134 343.501 120.417C344.182 119.733 344.569 118.809 344.579 117.844C344.57 117.119 344.334 116.72 344.217 116.738Z" fill="#263238"/>
<path d="M343.256 97.0421C343.456 97.4498 345.005 97.0421 346.88 97.1146C348.756 97.187 350.296 97.486 350.504 97.1146C350.595 96.9152 350.287 96.5438 349.598 96.2086C348.756 95.7807 347.825 95.5573 346.88 95.5562C345.938 95.5512 345.008 95.7652 344.162 96.1814C343.474 96.4713 343.166 96.8428 343.256 97.0421Z" fill="#263238"/>
<path d="M328.452 99.1256C328.769 99.4518 329.811 98.9716 331.116 98.8175C332.42 98.6635 333.544 98.8175 333.761 98.4008C333.852 98.2105 333.644 97.8662 333.127 97.5763C332.438 97.2314 331.66 97.108 330.898 97.223C330.134 97.2994 329.414 97.6167 328.842 98.129C328.425 98.582 328.307 98.9625 328.452 99.1256Z" fill="#263238"/>
<path d="M361.195 107.488C361.367 107.388 368.017 104.661 368.534 111.692C369.05 118.722 361.884 117.789 361.856 117.59C361.829 117.39 361.195 107.488 361.195 107.488Z" fill="#FFBF9D"/>
<path d="M363.813 114.763C363.813 114.763 363.94 114.845 364.158 114.927C364.456 115.022 364.779 115.002 365.064 114.872C365.779 114.546 366.323 113.323 366.269 112.054C366.238 111.45 366.078 110.86 365.798 110.324C365.72 110.102 365.588 109.903 365.414 109.745C365.24 109.586 365.029 109.474 364.801 109.418C364.657 109.389 364.508 109.413 364.38 109.484C364.253 109.556 364.154 109.67 364.103 109.808C364.022 110.007 364.103 110.143 364.04 110.161C363.976 110.179 363.886 110.052 363.922 109.762C363.948 109.585 364.034 109.422 364.167 109.3C364.256 109.221 364.361 109.16 364.475 109.121C364.588 109.082 364.708 109.066 364.828 109.074C365.122 109.107 365.402 109.216 365.64 109.391C365.879 109.566 366.067 109.8 366.187 110.07C366.529 110.656 366.725 111.314 366.758 111.991C366.812 113.413 366.187 114.791 365.191 115.162C365.006 115.231 364.808 115.257 364.612 115.238C364.416 115.219 364.226 115.156 364.058 115.053C363.832 114.936 363.786 114.782 363.813 114.763Z" fill="#FF9A6C"/>
<path d="M329.512 88.462C328.334 87.9094 331.514 84.0045 334.232 82.5549C338.337 80.3624 344.715 78.7678 348.728 79.6195C353.512 80.6523 357.562 82.7361 360.189 86.8675C362.738 91.0712 364.123 95.8772 364.203 100.793C364.358 102.286 364.111 103.794 363.487 105.16C362.581 106.772 360.769 107.878 361.005 110.016C361.056 110.402 361.03 110.795 360.929 111.171C360.828 111.547 360.654 111.9 360.416 112.208C359.211 113.667 357.562 112.48 356.747 111.239C355.025 108.575 354.645 105.305 354.3 102.179C353.933 99.9561 353.933 97.6882 354.3 95.4654C354.572 94.2695 355.052 93.1279 355.206 91.9139C355.345 91.3161 355.352 90.6953 355.227 90.0946C355.102 89.4938 354.847 88.9275 354.482 88.4348C354.296 88.2383 354.093 88.0594 353.875 87.9003C352.838 87.1092 351.609 86.6083 350.314 86.449C349.02 86.2898 347.706 86.478 346.509 86.9943C342.64 88.6523 336.008 91.18 334.151 89.9479C331.487 88.1812 330.799 86.9581 330.799 86.9581L329.512 88.462Z" fill="#263238"/>
</svg>
