<svg width="20" height="32" viewBox="0 0 20 32" fill="none" xmlns="http://www.w3.org/2000/svg">
<path d="M0.294666 17.1751C-0.522668 18.7818 0.405332 19.5498 2.52267 20.8618C4.32267 21.9738 6.80933 22.3804 8.40667 22.5431C7.752 23.1724 10.752 20.2871 2.112 28.5978C0.279999 30.3538 3.22933 33.1711 5.06 31.4524L10.016 26.6724C11.9133 28.4978 13.732 30.2471 14.972 31.4591C16.804 33.1844 19.752 30.3911 17.94 28.6044C17.804 28.4751 11.224 22.1631 11.6253 22.5498C13.2427 22.3871 15.692 21.9564 17.4707 20.8684L17.4693 20.8671C19.5867 19.5484 20.5147 18.7818 19.7093 17.1751C19.2227 16.2631 17.9107 15.5004 16.164 16.8191C16.164 16.8191 13.8053 18.6258 10.0013 18.6258C6.196 18.6258 3.83867 16.8191 3.83867 16.8191C2.09333 15.4938 0.775999 16.2631 0.294666 17.1751Z" fill="#00AB38"/>
<path d="M9.99867 16.1893C14.636 16.1893 18.4227 12.5653 18.4227 8.104C18.4227 3.624 14.636 0 9.99867 0C5.36 0 1.57333 3.624 1.57333 8.104C1.57333 12.5653 5.36 16.1893 9.99867 16.1893ZM9.99867 4.10533C12.2773 4.10533 14.136 5.89333 14.136 8.104C14.136 10.296 12.2773 12.084 9.99867 12.084C7.72 12.084 5.86133 10.296 5.86133 8.104C5.86 5.892 7.71867 4.10533 9.99867 4.10533Z" fill="#00AB38"/>
</svg>
