<svg width="32" height="32" viewBox="0 0 32 32" fill="none" xmlns="http://www.w3.org/2000/svg">
<path d="M28.768 8.06361C27.808 8.47961 26.816 8.76761 25.76 8.89561C26.848 8.25561 27.68 7.23161 28.064 5.98361C27.04 6.59161 25.92 7.00761 24.736 7.26361C23.776 6.23961 22.4 5.59961 20.896 5.59961C17.984 5.59961 15.648 7.96761 15.648 10.8476C15.648 11.2636 15.68 11.6476 15.776 12.0316C11.424 11.8396 7.584 9.72761 4.992 6.55961C3.136 9.88761 5.216 12.6396 6.592 13.5676C5.76 13.5676 4.928 13.3116 4.224 12.9276C4.224 15.5196 6.048 17.6636 8.416 18.1436C7.904 18.3036 6.752 18.3996 6.048 18.2396C6.72 20.3196 8.672 21.8556 10.944 21.8876C9.152 23.2956 6.528 24.4156 3.168 24.0636C5.504 25.5676 8.256 26.4316 11.232 26.4316C20.896 26.4316 26.144 18.4316 26.144 11.5196C26.144 11.2956 26.144 11.0716 26.112 10.8476C27.2 10.0476 28.096 9.11961 28.768 8.06361Z" fill="#00AB38"/>
</svg>
