<svg width="20" height="19" viewBox="0 0 20 19" fill="none" xmlns="http://www.w3.org/2000/svg">
<path d="M6 16C5.70333 16 5.41332 16.088 5.16664 16.2528C4.91997 16.4176 4.72771 16.6519 4.61418 16.926C4.50065 17.2001 4.47094 17.5017 4.52882 17.7926C4.5867 18.0836 4.72956 18.3509 4.93934 18.5607C5.14912 18.7704 5.41639 18.9133 5.70736 18.9712C5.99834 19.0291 6.29994 18.9993 6.57403 18.8858C6.84811 18.7723 7.08238 18.58 7.2472 18.3334C7.41203 18.0867 7.5 17.7967 7.5 17.5C7.5 17.1022 7.34196 16.7206 7.06066 16.4393C6.77936 16.158 6.39782 16 6 16ZM17 16C16.7033 16 16.4133 16.088 16.1666 16.2528C15.92 16.4176 15.7277 16.6519 15.6142 16.926C15.5007 17.2001 15.4709 17.5017 15.5288 17.7926C15.5867 18.0836 15.7296 18.3509 15.9393 18.5607C16.1491 18.7704 16.4164 18.9133 16.7074 18.9712C16.9983 19.0291 17.2999 18.9993 17.574 18.8858C17.8481 18.7723 18.0824 18.58 18.2472 18.3334C18.412 18.0867 18.5 17.7967 18.5 17.5C18.5 17.1022 18.342 16.7206 18.0607 16.4393C17.7794 16.158 17.3978 16 17 16ZM18 14.9983V12.9983L7.262 12.9891L6.9406 11.6967L20.0006 9.3632L20 2H4.5287L4.0312 0H0V2H2.4677L5.6982 14.9878L18 14.9983ZM18 4V7.6888L6.4567 9.7514L5.0262 4H18Z" fill="#333333"/>
</svg>
