<svg width="42" height="42" viewBox="0 0 42 42" fill="none" xmlns="http://www.w3.org/2000/svg">
<path fill-rule="evenodd" clip-rule="evenodd" d="M21 0C32.598 0 42 9.40201 42 21C42 32.598 32.598 42 21 42C9.40201 42 0 32.598 0 21C0 9.40201 9.40201 0 21 0ZM31.9258 21.1561C33.2146 19.7205 33.9199 17.8768 33.9199 15.9184C33.9199 13.8161 33.1075 11.8457 31.6324 10.3706C30.1573 8.8958 28.1877 8.08336 26.0846 8.08336C23.9823 8.08336 22.0122 8.89588 20.5372 10.3706L16.1081 14.7997L23.0464 21.7382C24.3849 20.6807 26.0743 20.0485 27.9087 20.0485C29.3756 20.0485 30.7497 20.4529 31.9258 21.1561ZM28.8313 33.8458C31.7096 33.4003 33.9199 30.906 33.9199 27.9051C33.9199 24.904 31.7096 22.4098 28.8313 21.9645V33.8458ZM21.8971 27.9051C21.8971 30.9061 24.1079 33.4003 26.986 33.8458V21.9645C24.1074 22.4098 21.8971 24.904 21.8971 27.9051ZM15.922 33.9166C17.8804 33.9166 19.7238 33.2113 21.1595 31.9225C20.4566 30.7463 20.0521 29.3722 20.0521 27.905C20.0521 26.0706 20.684 24.3812 21.7416 23.0429L14.8033 16.1044L10.3742 20.5337C7.3153 23.5926 7.3153 28.57 10.3742 31.6289C11.8493 33.1041 13.8195 33.9166 15.922 33.9166ZM21.9959 13.1342C22.0814 13.22 22.1831 13.288 22.295 13.3343C22.4069 13.3807 22.5269 13.4045 22.6481 13.4043C22.8845 13.4043 23.1203 13.3142 23.3006 13.1342C24.0378 12.3968 25.0265 11.9907 26.0846 11.9907C27.1435 11.9907 28.1317 12.3968 28.8694 13.1339C29.2298 13.4943 29.8138 13.4943 30.1742 13.1339C30.5347 12.7738 30.5347 12.1895 30.1742 11.8294C29.0884 10.7436 27.6359 10.1455 26.0847 10.1455C24.5337 10.1455 23.0818 10.7436 21.9959 11.8294C21.6355 12.1895 21.6355 12.7738 21.9959 13.1342Z" fill="url(#paint0_linear_1_17)"/>
<defs>
<linearGradient id="paint0_linear_1_17" x1="21" y1="42" x2="21" y2="0" gradientUnits="userSpaceOnUse">
<stop stop-color="#8EFFB3"/>
<stop offset="1" stop-color="#00AB38"/>
</linearGradient>
</defs>
</svg>
