<svg width="32" height="20" viewBox="0 0 32 20" fill="none" xmlns="http://www.w3.org/2000/svg">
<path fill-rule="evenodd" clip-rule="evenodd" d="M27.5406 12.4599C28.602 13.4962 29.7224 14.4713 30.6744 15.6122C31.095 16.1191 31.4931 16.6423 31.7977 17.2307C32.2293 18.067 31.8384 18.9874 31.0885 19.0374L26.4266 19.0353C25.2242 19.135 24.2651 18.651 23.4585 17.8289C22.8131 17.1715 22.2154 16.4718 21.5948 15.7922C21.3403 15.5144 21.074 15.253 20.7559 15.0464C20.1195 14.6333 19.5671 14.7598 19.2034 15.4235C18.833 16.0986 18.749 16.8462 18.7126 17.5985C18.6627 18.6963 18.3308 18.9849 17.2281 19.0352C14.8716 19.1463 12.6351 18.7898 10.5574 17.601C8.72568 16.5529 7.30526 15.0734 6.06893 13.3985C3.66178 10.137 1.81839 6.55309 0.161611 2.86882C-0.211316 2.03875 0.0614137 1.59318 0.977277 1.57741C2.49811 1.54786 4.01873 1.54997 5.54135 1.5753C6.15946 1.58435 6.56866 1.93887 6.80732 2.52281C7.63014 4.546 8.63694 6.47087 9.90071 8.25508C10.2373 8.73009 10.5804 9.20511 11.0691 9.53945C11.6097 9.90964 12.0214 9.78695 12.2757 9.18471C12.4371 8.80285 12.5077 8.39155 12.5441 7.98256C12.6646 6.57549 12.6805 5.17084 12.4691 3.76871C12.3394 2.89364 11.8465 2.32715 10.9733 2.16156C10.5278 2.07713 10.5941 1.91133 10.8098 1.657C11.1846 1.21836 11.537 0.945312 12.2395 0.945312H17.5081C18.3376 1.10901 18.5218 1.48162 18.6353 2.31622L18.6398 8.16855C18.6308 8.49164 18.8012 9.4504 19.3832 9.66425C19.8489 9.81649 20.1559 9.44388 20.4354 9.14855C21.6968 7.80971 22.5971 6.22748 23.4015 4.5891C23.7584 3.86869 24.0653 3.12053 24.3627 2.37299C24.5831 1.81828 24.9289 1.54534 25.5538 1.55743L30.6245 1.56195C30.7748 1.56195 30.927 1.56416 31.0726 1.58908C31.927 1.73469 32.1612 2.10226 31.8973 2.93664C31.4815 4.24572 30.6724 5.33664 29.8814 6.4326C29.0357 7.60269 28.1313 8.73272 27.2927 9.90975C26.5223 10.9846 26.5835 11.5264 27.5406 12.4599Z" fill="#00AB38"/>
</svg>
